# Blender 3.4.1
# www.blender.org
mtllib beetle.mtl
o Cube
v 0.008683 0.011874 0.008669
v 0.008984 0.011874 0.018427
v -0.008723 0.011874 0.008669
v -0.009024 0.011874 0.018427
v 0.008451 0.011874 0.008383
v -0.008491 0.011874 0.008383
v 0.008307 0.011874 0.023078
v -0.008346 0.011874 0.023078
v 0.007584 0.011874 0.025598
v -0.007624 0.011874 0.025598
v 0.006082 0.011874 0.027144
v -0.006122 0.011874 0.027144
v 0.004100 0.011874 0.028582
v -0.004140 0.011874 0.028582
v 0.001883 0.013039 0.023227
v 0.007211 0.011874 0.007721
v -0.007250 0.011874 0.007721
v 0.001894 0.013039 0.012860
v -0.002132 0.013039 0.012860
v 0.011097 0.009960 0.007768
v 0.011430 0.009960 0.018566
v -0.011469 0.009960 0.018566
v -0.011136 0.009960 0.007768
v -0.010072 0.009960 0.006462
v 0.010033 0.009960 0.006462
v -0.010737 0.009960 0.023592
v 0.010698 0.009960 0.023592
v -0.009801 0.009960 0.026859
v 0.009761 0.009960 0.026859
v 0.007685 0.009960 0.028996
v -0.007725 0.009960 0.028996
v 0.005261 0.009960 0.030755
v -0.005300 0.009960 0.030755
v 0.002698 0.009960 0.031700
v -0.002737 0.009960 0.031700
v -0.007984 0.009960 0.005347
v 0.007945 0.009960 0.005347
v -0.003702 0.009960 0.004878
v 0.003663 0.009960 0.004878
v 0.007271 0.012540 0.018329
v -0.007311 0.012540 0.018329
v -0.002215 0.013039 0.012926
v -0.006672 0.012540 0.022718
v 0.006632 0.012540 0.022718
v -0.006099 0.012540 0.024715
v 0.006059 0.012540 0.024715
v -0.001923 0.013039 0.023227
v 0.002262 0.011874 0.029260
v -0.002302 0.011874 0.029260
v 0.001897 0.013039 0.012863
v -0.003569 0.011874 0.007318
v 0.003529 0.011874 0.007318
v -0.003417 0.013039 0.018464
v -0.005672 0.012540 0.010782
v -0.002916 0.013039 0.021910
v 0.002876 0.013039 0.021910
v 0.003366 0.013039 0.018541
v -0.002735 0.013039 0.022540
v 0.002695 0.013039 0.022540
v -0.003476 0.012540 0.009027
v 0.003436 0.012540 0.009027
v 0.005336 0.012540 0.010850
v 0.003287 0.012540 0.027060
v -0.003327 0.012540 0.027060
v 0.000568 0.009124 0.030126
v -0.000607 0.009124 0.030126
v -0.000718 0.009120 0.006463
v 0.000678 0.009120 0.006463
v 0.000568 0.010810 0.027973
v -0.000607 0.010810 0.027973
v -0.000678 0.010807 0.008613
v 0.000639 0.010807 0.008613
v -0.000651 0.011396 0.010120
v 0.000611 0.011396 0.010120
v 0.000568 0.011397 0.026032
v -0.000607 0.011397 0.026032
v -0.000607 0.011837 0.013504
v 0.000568 0.011837 0.013504
v 0.000568 0.011837 0.022651
v -0.000607 0.011837 0.022651
v 0.001083 0.013039 0.023227
v 0.001083 0.012540 0.027060
v -0.001122 0.013039 0.023227
v -0.001122 0.012540 0.027060
v -0.001122 0.013039 0.012860
v -0.001172 0.012540 0.009027
v 0.001083 0.013039 0.012860
v 0.001132 0.012540 0.009027
v -0.001451 0.011486 0.007318
v 0.001411 0.011486 0.007318
v 0.001083 0.011874 0.029260
v -0.001122 0.011874 0.029260
v -0.002599 0.009859 0.005602
v 0.002559 0.009859 0.005602
v 0.001083 0.009960 0.031700
v -0.001122 0.009960 0.031700
v 0.011097 0.007914 0.007768
v -0.011469 0.007914 0.018566
v 0.011430 0.007914 0.018566
v -0.011136 0.007914 0.007768
v 0.010033 0.007914 0.006462
v -0.010072 0.007914 0.006462
v -0.010737 0.007914 0.023592
v 0.010698 0.007914 0.023592
v -0.009801 0.007914 0.026859
v 0.009761 0.007914 0.026859
v -0.007725 0.007914 0.028996
v 0.007685 0.007914 0.028996
v -0.005300 0.007914 0.030755
v 0.005261 0.007914 0.030755
v -0.002737 0.007914 0.031700
v 0.002698 0.007914 0.031700
v 0.007945 0.007914 0.005347
v -0.007984 0.007914 0.005347
v 0.003663 0.007914 0.004878
v -0.003702 0.007914 0.004878
v -0.002599 0.007914 0.005602
v 0.002559 0.007914 0.005602
v 0.000984 0.007914 0.031700
v -0.001024 0.007914 0.031700
v -0.000718 0.007914 0.006467
v 0.000678 0.007914 0.006467
v 0.000480 0.007914 0.030115
v -0.000520 0.007914 0.030115
v -0.000001 0.014401 0.000848
v -0.000001 0.013369 0.004819
v 0.001745 0.013535 0.000848
v 0.001745 0.012878 0.004401
v 0.003425 0.013130 0.000848
v 0.003425 0.012519 0.003984
v 0.004972 0.012470 0.000848
v 0.004972 0.011936 0.003718
v 0.006329 0.011583 0.000848
v 0.006329 0.011151 0.003718
v 0.007442 0.010502 0.000848
v 0.007442 0.010195 0.003718
v 0.008269 0.009269 0.000848
v 0.008269 0.009105 0.003718
v 0.008778 0.007931 0.000848
v 0.008778 0.007921 0.003718
v -0.008780 0.007931 0.000848
v -0.008780 0.007921 0.003718
v -0.008271 0.009269 0.000848
v -0.008271 0.009105 0.003718
v -0.007444 0.010502 0.000848
v -0.007444 0.010195 0.003718
v -0.006330 0.011583 0.000848
v -0.006330 0.011151 0.003718
v -0.004974 0.012470 0.000848
v -0.004974 0.011936 0.003718
v -0.003426 0.013130 0.000848
v -0.003426 0.012519 0.003984
v -0.001747 0.013535 0.000848
v -0.001747 0.012878 0.004401
v -0.000001 0.014569 -0.002169
v 0.001469 0.013645 -0.002169
v 0.002883 0.013232 -0.002169
v 0.004186 0.012560 -0.002169
v 0.005328 0.011655 -0.002169
v 0.006266 0.010553 -0.002169
v 0.006962 0.009296 -0.002169
v 0.007391 0.007932 -0.002169
v -0.007393 0.007932 -0.002169
v -0.006964 0.009296 -0.002169
v -0.006267 0.010553 -0.002169
v -0.005330 0.011655 -0.002169
v -0.004188 0.012560 -0.002169
v -0.002885 0.013232 -0.002169
v -0.001471 0.013645 -0.002169
v -0.000001 0.014176 -0.004465
v 0.001153 0.013535 -0.004465
v 0.002263 0.013130 -0.004465
v 0.003285 0.012470 -0.004465
v 0.004182 0.011583 -0.004465
v 0.004917 0.010502 -0.004465
v 0.005464 0.009269 -0.004465
v 0.005800 0.007931 -0.004465
v -0.005802 0.007931 -0.004465
v -0.005465 0.009269 -0.004465
v -0.004919 0.010502 -0.004465
v -0.004183 0.011583 -0.004465
v -0.003287 0.012470 -0.004465
v -0.002264 0.013130 -0.004465
v -0.001155 0.013535 -0.004465
v -0.000001 0.013637 -0.006630
v 0.000815 0.013385 -0.006630
v 0.001599 0.012995 -0.006630
v 0.002321 0.012581 -0.006630
v 0.002955 0.012057 -0.006630
v 0.003474 0.011511 -0.006630
v 0.003861 0.010957 -0.006630
v 0.004098 0.010246 -0.006630
v -0.004100 0.010246 -0.006630
v -0.003862 0.010957 -0.006630
v -0.003476 0.011511 -0.006630
v -0.002956 0.012057 -0.006630
v -0.002323 0.012581 -0.006630
v -0.001600 0.012995 -0.006630
v -0.000816 0.013385 -0.006630
v -0.000001 0.013817 -0.010565
v 0.000498 0.013337 -0.010565
v 0.000978 0.012931 -0.010565
v 0.001420 0.012500 -0.010565
v 0.001808 0.012237 -0.010565
v 0.002126 0.011967 -0.010565
v 0.002362 0.011655 -0.010565
v 0.002285 0.011371 -0.010565
v -0.000152 0.013644 -0.022947
v 0.000546 0.013345 -0.022947
v -0.000297 0.013534 -0.022947
v 0.000429 0.013417 -0.022947
v -0.000431 0.013417 -0.022947
v 0.000295 0.013534 -0.022947
v -0.000001 0.013833 -0.022947
v -0.000548 0.013345 -0.022947
v 0.000150 0.013644 -0.022947
v -0.000644 0.013272 -0.022947
v -0.000715 0.013187 -0.022947
v -0.002287 0.011371 -0.010565
v -0.002364 0.011655 -0.010565
v -0.002128 0.011967 -0.010565
v -0.001810 0.012237 -0.010565
v -0.001422 0.012500 -0.010565
v -0.000980 0.012931 -0.010565
v -0.000500 0.013337 -0.010565
v -0.000001 0.014179 -0.017432
v 0.000310 0.013821 -0.017432
v 0.000608 0.013604 -0.017432
v 0.000884 0.013374 -0.017432
v 0.001125 0.013233 -0.017432
v 0.001323 0.013089 -0.017432
v 0.001470 0.012923 -0.017432
v 0.001422 0.012771 -0.017432
v -0.000692 0.013110 -0.022947
v 0.000690 0.013110 -0.022947
v 0.000714 0.013187 -0.022947
v 0.000642 0.013272 -0.022947
v -0.000227 0.013826 -0.020353
v 0.000820 0.013371 -0.020353
v -0.000445 0.013658 -0.020353
v 0.000644 0.013480 -0.020353
v -0.000646 0.013480 -0.020353
v 0.000443 0.013658 -0.020353
v -0.000822 0.013371 -0.020353
v -0.000001 0.014113 -0.020353
v 0.000226 0.013826 -0.020353
v -0.000966 0.013260 -0.020353
v -0.001074 0.013131 -0.020353
v -0.001039 0.013014 -0.020353
v 0.001037 0.013014 -0.020353
v -0.001424 0.012771 -0.017432
v -0.001472 0.012923 -0.017432
v -0.001325 0.013089 -0.017432
v -0.001127 0.013233 -0.017432
v -0.000886 0.013374 -0.017432
v -0.000610 0.013604 -0.017432
v -0.000312 0.013821 -0.017432
v -0.000001 0.013228 -0.025175
v 0.000085 0.013185 -0.025175
v 0.000168 0.013153 -0.025175
v 0.000244 0.013125 -0.025175
v 0.000311 0.013095 -0.025175
v 0.000366 0.013056 -0.025175
v 0.000387 0.013008 -0.025175
v 0.000374 0.012943 -0.025175
v 0.000965 0.013260 -0.020353
v 0.001072 0.013131 -0.020353
v -0.000400 0.013665 -0.014219
v 0.001444 0.012883 -0.014219
v -0.000783 0.013376 -0.014219
v 0.001135 0.013071 -0.014219
v -0.001136 0.013071 -0.014219
v 0.000781 0.013376 -0.014219
v -0.001446 0.012883 -0.014219
v -0.000001 0.014080 -0.014219
v 0.000398 0.013665 -0.014219
v -0.001700 0.012692 -0.014219
v -0.001889 0.012470 -0.014219
v -0.001828 0.012269 -0.014219
v 0.001826 0.012269 -0.014219
v 0.001699 0.012692 -0.014219
v 0.001888 0.012470 -0.014219
v -0.000376 0.012943 -0.025175
v -0.000389 0.013008 -0.025175
v -0.000367 0.013056 -0.025175
v -0.000312 0.013095 -0.025175
v -0.000246 0.013125 -0.025175
v -0.000170 0.013153 -0.025175
v -0.000087 0.013185 -0.025175
v 0.004172 0.008920 -0.006186
v -0.004174 0.008920 -0.006186
v -0.000001 0.007931 -0.004465
v -0.000001 0.008185 -0.005868
v 0.002900 0.007931 -0.004465
v 0.002370 0.008287 -0.005868
v -0.002901 0.007931 -0.004465
v -0.002372 0.008287 -0.005868
v 0.002199 0.009598 -0.007327
v -0.002201 0.009598 -0.007327
v -0.000001 0.009365 -0.007417
v 0.001099 0.009365 -0.007417
v -0.001101 0.009365 -0.007417
v 0.002569 0.010100 -0.008082
v -0.002570 0.010100 -0.008082
v 0.001099 0.010075 -0.008358
v -0.001101 0.010075 -0.008358
v 0.001852 0.011206 -0.010565
v -0.001854 0.011206 -0.010565
v 0.001152 0.012606 -0.017432
v -0.000561 0.012945 -0.022947
v 0.000559 0.012945 -0.022947
v -0.000842 0.012848 -0.020353
v 0.000840 0.012848 -0.020353
v -0.001154 0.012606 -0.017432
v 0.000318 0.012846 -0.025175
v -0.001481 0.012104 -0.014219
v 0.001480 0.012104 -0.014219
v -0.000320 0.012846 -0.025175
v 0.001292 0.011013 -0.010565
v -0.001294 0.011013 -0.010565
v 0.000804 0.012413 -0.017432
v -0.000392 0.012752 -0.022947
v 0.000390 0.012752 -0.022947
v -0.000588 0.012655 -0.020353
v 0.000586 0.012655 -0.020353
v -0.000806 0.012413 -0.017432
v 0.000222 0.012707 -0.025175
v -0.001034 0.011911 -0.014219
v 0.001032 0.011911 -0.014219
v -0.000224 0.012707 -0.025175
v 0.000494 0.010934 -0.010565
v -0.000495 0.010934 -0.010565
v 0.000307 0.012334 -0.017432
v -0.000150 0.012673 -0.022947
v 0.000149 0.012673 -0.022947
v -0.000225 0.012576 -0.020353
v 0.000224 0.012576 -0.020353
v -0.000309 0.012334 -0.017432
v 0.000084 0.012628 -0.025175
v -0.000396 0.011832 -0.014219
v 0.000394 0.011832 -0.014219
v -0.000086 0.012628 -0.025175
v 0.000298 0.010487 -0.009430
v -0.000279 0.010487 -0.009430
v -0.000001 0.012871 -0.025955
v 0.000026 0.012858 -0.025955
v 0.000051 0.012848 -0.025955
v 0.000075 0.012840 -0.025955
v 0.000095 0.012830 -0.025955
v 0.000112 0.012818 -0.025955
v 0.000119 0.012804 -0.025955
v 0.000115 0.012783 -0.025955
v -0.000116 0.012783 -0.025955
v -0.000120 0.012804 -0.025955
v -0.000114 0.012818 -0.025955
v -0.000097 0.012830 -0.025955
v -0.000076 0.012840 -0.025955
v -0.000053 0.012848 -0.025955
v -0.000027 0.012858 -0.025955
v 0.000097 0.012753 -0.025955
v -0.000099 0.012753 -0.025955
v 0.000068 0.012711 -0.025955
v -0.000070 0.012711 -0.025955
v 0.000025 0.012686 -0.025955
v -0.000027 0.012686 -0.025955
v -0.000001 0.012742 0.005210
v 0.001535 0.012310 0.004843
v 0.003012 0.011994 0.004476
v 0.004373 0.011481 0.004242
v 0.005565 0.010792 0.004242
v 0.006544 0.009951 0.004242
v 0.007272 0.008992 0.004242
v 0.007720 0.007951 0.004242
v -0.007722 0.007951 0.004242
v -0.007274 0.008992 0.004242
v -0.006546 0.009951 0.004242
v -0.005567 0.010792 0.004242
v -0.004374 0.011481 0.004242
v -0.003013 0.011994 0.004476
v -0.001537 0.012310 0.004843
v -0.000001 0.012123 0.005352
v 0.001318 0.012107 0.005093
v 0.002359 0.011885 0.004834
v 0.003083 0.011235 0.004669
v 0.004876 0.010748 0.004669
v 0.005566 0.010156 0.004669
v 0.001724 0.009479 0.004669
v 0.001831 0.007935 0.004669
v -0.001832 0.007935 0.004669
v -0.001726 0.009479 0.004669
v -0.005568 0.010156 0.004669
v -0.004877 0.010748 0.004669
v -0.003084 0.011235 0.004669
v -0.002361 0.011885 0.004834
v -0.001319 0.012107 0.005093
vn -0.9995 -0.0000 -0.0308
vn 0.9995 -0.0000 -0.0308
vn -0.7753 -0.0000 -0.6316
vn -0.4709 -0.0000 -0.8822
vn -0.0000 1.0000 -0.0000
vn 0.9896 -0.0000 0.1441
vn 0.9613 -0.0000 0.2756
vn 0.7172 -0.0000 0.6968
vn 0.3461 -0.0000 0.9382
vn 0.5872 -0.0000 0.8094
vn -0.0000 -0.0000 1.0000
vn -0.1090 -0.0000 -0.9940
vn -0.5490 -0.0000 -0.8358
vn 0.6168 0.7869 -0.0190
vn -0.6168 0.7869 -0.0190
vn -0.4785 0.7869 -0.3898
vn 0.4785 0.7869 -0.3898
vn -0.6107 0.7869 0.0889
vn 0.6107 0.7869 0.0889
vn -0.5932 0.7869 0.1701
vn 0.5932 0.7869 0.1701
vn 0.4426 0.7869 0.4300
vn -0.4426 0.7869 0.4300
vn 0.3624 0.7869 0.4995
vn -0.3624 0.7869 0.4995
vn -0.0000 0.7869 0.6171
vn 0.2136 0.7869 0.5790
vn -0.2136 0.7869 0.5790
vn -0.2906 0.7869 -0.5444
vn 0.2906 0.7869 -0.5444
vn -0.2566 0.6952 -0.6715
vn -0.0672 0.7869 -0.6134
vn 0.0672 0.7869 -0.6134
vn 0.2424 0.9697 -0.0314
vn -0.2578 0.9658 -0.0289
vn -0.1373 0.9842 -0.1119
vn 0.1282 0.9862 -0.1044
vn -0.3593 0.9317 0.0523
vn 0.3593 0.9317 0.0523
vn -0.3491 0.9317 0.1001
vn 0.3491 0.9317 0.1001
vn 0.2605 0.9317 0.2530
vn -0.2605 0.9317 0.2530
vn 0.2155 0.9382 0.2708
vn -0.2155 0.9382 0.2708
vn -0.0000 0.9571 0.2898
vn 0.1257 0.9317 0.3407
vn -0.1257 0.9317 0.3407
vn -0.0894 0.9818 -0.1675
vn 0.0847 0.9837 -0.1587
vn -0.0777 0.8872 -0.4548
vn -0.0879 0.9670 -0.2392
vn 0.0916 0.9690 -0.2296
vn -0.1261 0.9916 -0.0274
vn -0.1277 0.9916 0.0186
vn 0.1277 0.9916 0.0186
vn -0.1241 0.9916 0.0356
vn 0.1241 0.9916 0.0356
vn -0.0000 0.9916 -0.1291
vn 0.0894 0.9916 -0.0931
vn -0.0000 0.9916 0.1291
vn 0.1249 0.9916 -0.0323
vn 0.0834 0.9916 0.0985
vn -0.0834 0.9916 0.0985
vn -0.0806 0.9916 -0.1008
vn -0.0000 0.9916 -0.1293
vn 0.0777 0.8872 -0.4548
vn -0.0000 0.9315 -0.3639
vn 0.2566 0.6952 -0.6715
vn -0.0000 0.7867 -0.6174
vn -0.0000 0.7873 0.6166
vn 0.5490 -0.0000 -0.8358
vn -0.0000 -0.0084 1.0000
vn -0.9262 0.3738 0.0487
vn 0.9262 0.3738 0.0487
vn 0.9287 0.3660 -0.0597
vn -0.9287 0.3660 -0.0597
vn 0.9137 0.3201 -0.2505
vn -0.9137 0.3201 -0.2505
vn -0.9378 0.3323 0.1006
vn 0.9378 0.3323 0.1006
vn 0.6965 0.4248 -0.5783
vn -0.6965 0.4248 -0.5783
vn -0.9536 0.2371 0.1858
vn 0.9536 0.2371 0.1858
vn -0.4166 -0.0012 -0.9091
vn 0.9544 0.0534 0.2937
vn -0.9191 0.3940 -0.0000
vn 0.9191 0.3940 -0.0000
vn -0.9544 0.0534 0.2937
vn 0.4166 -0.0012 -0.9091
vn 0.1090 -0.0000 -0.9940
vn 0.4709 -0.0000 -0.8822
vn -0.3461 -0.0000 0.9382
vn -0.5872 -0.0000 0.8094
vn -0.7172 -0.0000 0.6968
vn -0.9613 -0.0000 0.2756
vn 0.7753 -0.0000 -0.6316
vn -0.9896 -0.0000 0.1441
vn 0.3755 0.9043 0.2031
vn 0.2397 0.9538 0.1809
vn 0.3796 0.9088 0.1733
vn 0.5193 0.8427 0.1419
vn 0.6720 0.7345 0.0946
vn 0.8137 0.5793 0.0476
vn 0.9271 0.3746 0.0114
vn -0.9271 0.3746 0.0114
vn -0.8137 0.5793 0.0476
vn -0.6720 0.7345 0.0946
vn -0.5193 0.8427 0.1419
vn -0.3796 0.9088 0.1733
vn -0.2397 0.9538 0.1809
vn -0.3755 0.9043 0.2031
vn -0.8066 0.4935 -0.3255
vn 0.7073 0.6644 -0.2415
vn 0.4861 0.8737 0.0181
vn -0.4861 0.8737 0.0181
vn -0.7073 0.6644 -0.2415
vn 0.8066 0.4935 -0.3255
vn 0.2561 0.9666 -0.0007
vn -0.5762 0.8036 -0.1491
vn 0.8709 0.3024 -0.3874
vn 0.4222 0.9042 -0.0642
vn -0.4222 0.9042 -0.0642
vn -0.8709 0.3024 -0.3874
vn 0.5762 0.8036 -0.1491
vn -0.2562 0.9666 -0.0007
vn -0.8071 0.2286 -0.5444
vn -0.7799 0.3893 -0.4902
vn 0.5080 0.8517 -0.1283
vn -0.7244 0.5552 -0.4086
vn 0.3072 0.9457 -0.1063
vn -0.6286 0.7153 -0.3055
vn 0.4870 0.8509 -0.1968
vn -0.4870 0.8509 -0.1968
vn 0.6286 0.7153 -0.3055
vn -0.3072 0.9457 -0.1063
vn 0.7244 0.5552 -0.4086
vn -0.5080 0.8517 -0.1283
vn 0.7799 0.3893 -0.4902
vn 0.8071 0.2286 -0.5444
vn -0.8405 0.4385 -0.3182
vn 0.4065 0.8968 -0.1746
vn -0.7625 0.5886 -0.2687
vn 0.3833 0.9116 -0.1487
vn -0.6587 0.7141 -0.2370
vn 0.5136 0.8349 -0.1978
vn -0.5136 0.8349 -0.1978
vn 0.6587 0.7141 -0.2370
vn -0.3833 0.9116 -0.1487
vn 0.7625 0.5886 -0.2687
vn -0.4065 0.8968 -0.1746
vn 0.8405 0.4385 -0.3182
vn 0.8662 0.2429 -0.4367
vn -0.8662 0.2429 -0.4367
vn -0.9445 -0.2925 -0.1492
vn 0.5825 0.8028 -0.1273
vn -0.5825 0.8028 -0.1273
vn 0.6040 0.7832 -0.1472
vn -0.5315 0.8437 -0.0753
vn 0.6883 0.7074 -0.1610
vn -0.4865 0.8737 -0.0049
vn 0.7952 0.5711 -0.2039
vn 0.9233 0.1492 -0.3539
vn 0.7640 0.6386 -0.0917
vn 0.9485 -0.2855 -0.1372
vn -0.9485 -0.2855 -0.1372
vn -0.7640 0.6386 -0.0917
vn 0.7815 0.6204 -0.0666
vn -0.9233 0.1492 -0.3539
vn -0.7952 0.5711 -0.2039
vn 0.4865 0.8737 -0.0049
vn -0.6883 0.7074 -0.1610
vn 0.5315 0.8437 -0.0753
vn -0.6040 0.7832 -0.1472
vn 0.6256 0.7781 0.0568
vn 0.7562 0.6543 -0.0068
vn -0.7568 0.6512 -0.0559
vn 0.9419 -0.2933 -0.1640
vn 0.7684 0.6397 -0.0179
vn -0.6072 0.7913 -0.0719
vn -0.5978 0.8012 -0.0256
vn 0.6063 0.7919 -0.0728
vn 0.5968 0.8022 -0.0174
vn -0.5232 0.8498 -0.0639
vn -0.5134 0.8581 -0.0121
vn 0.6596 0.7481 -0.0732
vn 0.6505 0.7591 -0.0243
vn -0.6596 0.7481 -0.0732
vn -0.9419 -0.2933 -0.1640
vn 0.5232 0.8498 -0.0639
vn -0.7562 0.6543 -0.0068
vn -0.6063 0.7919 -0.0728
vn 0.7369 0.6758 0.0168
vn -0.5956 0.8028 0.0290
vn 0.6072 0.7913 -0.0719
vn 0.5947 0.8036 0.0239
vn -0.5110 0.8586 0.0420
vn -0.7815 0.6204 -0.0666
vn 0.6485 0.7609 0.0202
vn -0.6485 0.7609 0.0202
vn 0.7568 0.6512 -0.0559
vn 0.5110 0.8586 0.0420
vn -0.5947 0.8036 0.0239
vn 0.9445 -0.2925 -0.1492
vn 0.5956 0.8028 0.0290
vn -0.7369 0.6758 0.0168
vn -0.7054 0.7072 0.0474
vn 0.8075 0.5678 -0.1598
vn -0.5407 0.8363 0.0912
vn 0.9625 -0.2433 -0.1200
vn 0.6783 0.7326 0.0570
vn -0.6505 0.7591 -0.0243
vn -0.6783 0.7326 0.0570
vn 0.5134 0.8581 -0.0121
vn 0.5407 0.8363 0.0912
vn -0.5968 0.8022 -0.0174
vn -0.6256 0.7781 0.0568
vn 0.5978 0.8012 -0.0256
vn 0.6256 0.7762 0.0780
vn -0.7684 0.6397 -0.0179
vn -0.9625 -0.2433 -0.1200
vn 0.7818 0.6226 0.0347
vn -0.8075 0.5678 -0.1598
vn 0.9448 -0.2709 -0.1842
vn 0.6870 0.7045 -0.1783
vn -0.5894 0.7936 -0.1510
vn -0.9448 -0.2709 -0.1842
vn 0.5209 0.8345 -0.1798
vn -0.4795 0.8645 -0.1505
vn -0.7818 0.6226 0.0347
vn 0.5608 0.8119 -0.1619
vn -0.5608 0.8119 -0.1619
vn 0.7054 0.7072 0.0474
vn 0.4795 0.8645 -0.1505
vn -0.5209 0.8345 -0.1798
vn -0.6256 0.7762 0.0780
vn 0.5894 0.7936 -0.1510
vn -0.6870 0.7045 -0.1783
vn -0.0000 -1.0000 0.0012
vn 0.0189 -0.9762 -0.2160
vn 0.0897 -0.8908 -0.4455
vn -0.0897 -0.8908 -0.4455
vn -0.0189 -0.9762 -0.2160
vn -0.1632 -0.7245 -0.6696
vn 0.1632 -0.7245 -0.6696
vn -0.0236 -0.8033 -0.5952
vn 0.0236 -0.8033 -0.5952
vn -0.6477 -0.2089 -0.7327
vn 0.6477 -0.2089 -0.7327
vn -0.4464 -0.5397 -0.7138
vn 0.4464 -0.5397 -0.7138
vn 0.1607 -0.8192 -0.5505
vn -0.1607 -0.8192 -0.5505
vn -0.0000 -0.7987 -0.6018
vn -0.7058 -0.6996 -0.1114
vn 0.8126 -0.5789 -0.0669
vn -0.5730 -0.8083 -0.1354
vn 0.4645 -0.8653 -0.1882
vn -0.3770 -0.8886 -0.2612
vn 0.5730 -0.8083 -0.1354
vn 0.3770 -0.8886 -0.2612
vn -0.8126 -0.5789 -0.0669
vn 0.7058 -0.6996 -0.1114
vn -0.4645 -0.8653 -0.1882
vn 0.6712 -0.7359 -0.0891
vn 0.7798 -0.6239 -0.0514
vn -0.4297 -0.8857 -0.1757
vn 0.5358 -0.8361 -0.1179
vn -0.7798 -0.6239 -0.0514
vn -0.3465 -0.9036 -0.2519
vn -0.6712 -0.7359 -0.0891
vn -0.5358 -0.8361 -0.1179
vn 0.3465 -0.9036 -0.2519
vn 0.4297 -0.8857 -0.1757
vn -0.1058 -0.9645 -0.2421
vn -0.2520 -0.9665 -0.0492
vn -0.1796 -0.9796 -0.0905
vn 0.1058 -0.9645 -0.2421
vn 0.1358 -0.9778 -0.1596
vn 0.2520 -0.9665 -0.0492
vn 0.3837 -0.9234 -0.0013
vn -0.1358 -0.9778 -0.1596
vn 0.1796 -0.9796 -0.0905
vn -0.3837 -0.9234 -0.0013
vn -0.0000 -0.9885 -0.1509
vn 0.4527 -0.7718 -0.4466
vn -0.4527 -0.7718 -0.4466
vn 0.1527 -0.8997 -0.4090
vn -0.1527 -0.8997 -0.4090
vn -0.0000 -0.9304 -0.3665
vn -0.0000 -0.9334 -0.3590
vn -0.0585 -0.9247 -0.3761
vn 0.0594 -0.9246 -0.3763
vn -0.3324 0.8605 -0.3862
vn -0.8517 -0.4910 -0.1831
vn 0.3324 0.8605 -0.3862
vn -0.4096 0.8297 -0.3792
vn 0.3193 0.8654 -0.3862
vn -0.0000 -0.9972 -0.0748
vn -0.8106 -0.5624 -0.1631
vn -0.9435 -0.1824 -0.2768
vn 0.3819 0.8380 -0.3898
vn -0.8391 0.3806 -0.3887
vn 0.5309 0.7470 -0.4001
vn -0.5309 0.7470 -0.4001
vn 0.8391 0.3806 -0.3887
vn -0.3819 0.8379 -0.3898
vn 0.9435 -0.1824 -0.2768
vn 0.8106 -0.5624 -0.1631
vn 0.4944 -0.8632 -0.1021
vn -0.3193 0.8654 -0.3862
vn 0.8517 -0.4910 -0.1831
vn 0.4096 0.8297 -0.3792
vn -0.4944 -0.8632 -0.1021
vn -0.0000 -0.0000 -1.0000
vn -0.3018 0.5219 0.7978
vn 0.3018 0.5219 0.7978
vn -0.4137 0.3137 0.8547
vn -0.3318 0.4994 0.8003
vn 0.3087 0.5100 0.8029
vn 0.4399 0.1894 0.8778
vn -0.3255 0.4977 0.8039
vn 0.3665 0.4268 0.8267
vn -0.3665 0.4268 0.8267
vn 0.3255 0.4977 0.8039
vn 0.3318 0.4994 0.8003
vn -0.4399 0.1894 0.8778
vn -0.3087 0.5100 0.8029
vn 0.4137 0.3137 0.8547
vn -0.3113 0.5877 0.7468
vn 0.1061 -0.2020 0.9736
vn -0.2536 0.3612 0.8974
vn 0.0752 0.0161 0.9970
vn -0.0752 0.0161 0.9970
vn 0.2536 0.3612 0.8974
vn -0.1061 -0.2020 0.9736
vn 0.3113 0.5877 0.7468
vn -0.4322 0.5032 0.7483
vn 0.3201 0.2621 0.9104
vn -0.2388 0.6062 0.7586
vn 0.2388 0.6062 0.7586
vn -0.3201 0.2621 0.9104
vn 0.4322 0.5032 0.7483
vn -0.2091 0.0512 -0.9766
vn 0.2091 0.0512 -0.9766
vn -0.0000 0.1850 -0.9827
vn -0.8587 0.0340 0.5113
vn 0.8507 0.0337 0.5245
vn -0.0000 0.9805 0.1965
vn -0.0000 -0.9999 -0.0121
vn -0.0000 -1.0000 -0.0000
vt 0.658691 0.500000
vt 0.651853 0.750000
vt 0.841309 0.500000
vt 0.848147 0.750000
vt 0.679981 0.500000
vt 0.820019 0.500000
vt 0.654128 0.750000
vt 0.845872 0.750000
vt 0.664610 0.750000
vt 0.835390 0.750000
vt 0.679213 0.750000
vt 0.820787 0.750000
vt 0.736098 0.750000
vt 0.763902 0.750000
vt 0.719635 0.750000
vt 0.904254 0.500000
vt 0.595747 0.500000
vt 0.728863 0.588565
vt 0.787332 0.588827
vt 0.625000 0.500000
vt 0.625000 0.750000
vt 0.875000 0.750000
vt 0.625000 0.000000
vt 0.625000 0.250000
vt 0.875000 0.500000
vt 0.625000 0.250000
vt 0.875000 0.500000
vt 0.625000 0.500000
vt 0.875000 0.750000
vt 0.625000 0.000000
vt 0.625000 0.750000
vt 0.875000 0.750000
vt 0.625000 0.000000
vt 0.625000 0.750000
vt 0.625000 0.750000
vt 0.875000 0.750000
vt 0.625000 0.000000
vt 0.625000 0.750000
vt 0.875000 0.750000
vt 0.625000 0.000000
vt 0.625000 0.750000
vt 0.625000 1.000000
vt 0.875000 0.750000
vt 0.625000 0.000000
vt 0.625000 0.250000
vt 0.875000 0.500000
vt 0.625000 0.500000
vt 0.875000 0.500000
vt 0.625000 0.250000
vt 0.625000 0.500000
vt 0.670599 0.750000
vt 0.829401 0.750000
vt 0.788462 0.590382
vt 0.826818 0.750000
vt 0.673182 0.750000
vt 0.817261 0.750000
vt 0.829385 0.750000
vt 0.682739 0.750000
vt 0.670615 0.750000
vt 0.780366 0.750000
vt 0.746112 0.750000
vt 0.753888 0.750000
vt 0.728828 0.588639
vt 0.615931 0.500000
vt 0.884069 0.500000
vt 0.787058 0.750000
vt 1.170608 0.500000
vt 0.808071 0.500001
vt 0.857144 0.500000
vt 0.783932 0.750000
vt 0.716068 0.750000
vt 0.712945 0.756504
vt 0.781463 0.750000
vt 0.794663 0.750000
vt 0.705338 0.750000
vt 0.718537 0.750000
vt 0.818551 0.500001
vt 0.681450 0.500001
vt 0.642856 0.500000
vt 0.329391 0.500000
vt 0.691929 0.500001
vt 0.733353 0.750000
vt 0.739948 0.750000
vt 0.760052 0.750000
vt 0.766646 0.750000
vt 0.724839 0.750000
vt 0.625068 0.849834
vt 0.775161 0.750000
vt 0.625068 0.900166
vt 0.776863 0.500000
vt 0.624963 0.348152
vt 0.723137 0.500000
vt 0.624963 0.401848
vt 0.749217 0.750000
vt 0.750783 0.750000
vt 0.721833 0.500000
vt 0.778167 0.500000
vt 0.764122 0.500001
vt 0.735879 0.500001
vt 0.747312 0.750000
vt 0.752687 0.750000
vt 0.763985 0.588680
vt 0.752214 0.588627
vt 0.743887 0.750000
vt 0.756114 0.750000
vt 0.739879 0.750000
vt 0.745550 0.750000
vt 0.760122 0.750000
vt 0.754449 0.750000
vt 0.767842 0.588740
vt 0.772851 0.500001
vt 0.748353 0.588653
vt 0.727150 0.500001
vt 0.705310 0.500000
vt 0.794690 0.500000
vt 0.748704 0.750000
vt 0.751296 0.750000
vt 0.791667 0.500000
vt 0.625000 0.333333
vt 0.708333 0.500000
vt 0.625000 0.416667
vt 0.708333 0.750000
vt 0.625000 0.833333
vt 0.791667 0.750000
vt 0.625000 0.916667
vt 0.526016 0.500000
vt 0.527562 0.000000
vt 0.527562 0.750000
vt 0.526016 0.250000
vt 0.520728 0.500000
vt 0.520727 0.250000
vt 0.524096 0.000000
vt 0.524096 0.750000
vt 0.519284 0.000000
vt 0.519284 0.750000
vt 0.506793 0.000000
vt 0.506793 0.750000
vt 0.487862 0.000000
vt 0.487862 0.750000
vt 0.459918 1.000000
vt 0.459918 0.000000
vt 0.459918 0.750000
vt 0.508512 0.500000
vt 0.508512 0.250000
vt 0.471681 0.500000
vt 0.471681 0.250000
vt 0.471681 0.333333
vt 0.471681 0.416667
vt 0.459918 0.831830
vt 0.459918 0.918170
vt 0.473212 0.348148
vt 0.473212 0.401852
vt 0.461566 0.852071
vt 0.461566 0.897929
vt 1.000000 0.500000
vt 0.000000 0.500000
vt 0.000000 1.000000
vt 1.000000 1.000000
vt 0.968750 0.500000
vt 0.968750 1.000000
vt 0.937500 0.500000
vt 0.937500 1.000000
vt 0.906250 0.500000
vt 0.906250 1.000000
vt 0.875000 0.500000
vt 0.875000 1.000000
vt 0.843750 0.500000
vt 0.843750 1.000000
vt 0.812500 0.500000
vt 0.812500 1.000000
vt 0.781250 0.500000
vt 0.781250 1.000000
vt 0.218750 0.500000
vt 0.218750 1.000000
vt 0.187500 0.500000
vt 0.187500 1.000000
vt 0.156250 0.500000
vt 0.156250 1.000000
vt 0.125000 0.500000
vt 0.125000 1.000000
vt 0.093750 0.500000
vt 0.093750 1.000000
vt 0.062500 0.500000
vt 0.062500 1.000000
vt 0.031250 0.500000
vt 0.031250 1.000000
vt 1.000000 0.500000
vt 0.000000 0.500000
vt 0.968750 0.500000
vt 0.937500 0.500000
vt 0.906250 0.500000
vt 0.875000 0.500000
vt 0.843750 0.500000
vt 0.812500 0.500000
vt 0.781250 0.500000
vt 0.218750 0.500000
vt 0.187500 0.500000
vt 0.156250 0.500000
vt 0.125000 0.500000
vt 0.093750 0.500000
vt 0.062500 0.500000
vt 0.031250 0.500000
vt 1.000000 0.500000
vt 0.000000 0.500000
vt 0.968750 0.500000
vt 0.937500 0.500000
vt 0.906250 0.500000
vt 0.875000 0.500000
vt 0.843750 0.500000
vt 0.812500 0.500000
vt 0.781250 0.500000
vt 0.218750 0.500000
vt 0.187500 0.500000
vt 0.156250 0.500000
vt 0.125000 0.500000
vt 0.093750 0.500000
vt 0.062500 0.500000
vt 0.031250 0.500000
vt 0.000000 0.500000
vt 1.000000 0.500000
vt 0.968750 0.500000
vt 0.937500 0.500000
vt 0.906250 0.500000
vt 0.875000 0.500000
vt 0.843750 0.500000
vt 0.812500 0.500000
vt 0.781250 0.500000
vt 0.218750 0.500000
vt 0.187500 0.500000
vt 0.156250 0.500000
vt 0.125000 0.500000
vt 0.093750 0.500000
vt 0.062500 0.500000
vt 0.031250 0.500000
vt 0.000000 0.500000
vt 1.000000 0.500000
vt 0.968750 0.500000
vt 0.937500 0.500000
vt 0.906250 0.500000
vt 0.875000 0.500000
vt 0.843750 0.500000
vt 0.812500 0.500000
vt 0.781250 0.500000
vt 0.037666 0.500000
vt 0.871408 0.500000
vt 0.067832 0.500000
vt 0.901678 0.500000
vt 0.098322 0.500000
vt 0.932168 0.500000
vt 0.990433 0.500000
vt 0.009567 0.500000
vt 0.128592 0.500000
vt 0.962334 0.500000
vt 0.158170 0.500000
vt 0.188215 0.500000
vt 0.218750 0.500000
vt 0.187500 0.500000
vt 0.156250 0.500000
vt 0.125000 0.500000
vt 0.093750 0.500000
vt 0.062500 0.500000
vt 0.031250 0.500000
vt 1.001008 0.500000
vt -0.001008 0.500000
vt 0.969309 0.500000
vt 0.937917 0.500000
vt 0.906508 0.500000
vt 0.874681 0.500000
vt 0.842637 0.500000
vt 0.809763 0.500000
vt 0.781249 0.500000
vt 0.213787 0.500000
vt 0.786213 0.500000
vt 0.811785 0.500000
vt 0.841831 0.500000
vt 0.043041 0.500000
vt 0.864118 0.500000
vt 0.072907 0.500000
vt 0.895003 0.500000
vt 0.104997 0.500000
vt 0.927093 0.500000
vt 0.135882 0.500000
vt 0.983529 0.500000
vt 0.016471 0.500000
vt 0.956959 0.500000
vt 0.165591 0.500000
vt 0.195476 0.500000
vt 0.218081 0.500000
vt 0.781919 0.500000
vt 0.218751 0.500000
vt 0.190237 0.500000
vt 0.157363 0.500000
vt 0.125319 0.500000
vt 0.093492 0.500000
vt 0.062084 0.500000
vt 0.030691 0.500000
vt 0.000000 0.500000
vt 1.000000 0.500000
vt 0.968750 0.500000
vt 0.937500 0.500000
vt 0.906250 0.500000
vt 0.875000 0.500000
vt 0.843750 0.500000
vt 0.812500 0.500000
vt 0.781250 0.500000
vt 0.834409 0.500000
vt 0.804525 0.500000
vt 0.031250 0.500000
vt 0.874998 0.500000
vt 0.062500 0.500000
vt 0.906276 0.500000
vt 0.093724 0.500000
vt 0.937500 0.500000
vt 0.125002 0.500000
vt 0.000033 0.500000
vt 0.999967 0.500000
vt 0.968750 0.500000
vt 0.156255 0.500000
vt 0.187503 0.500000
vt 0.218756 0.500000
vt 0.781243 0.500000
vt 0.843745 0.500000
vt 0.812497 0.500000
vt 0.218750 0.500000
vt 0.187500 0.500000
vt 0.156250 0.500000
vt 0.125000 0.500000
vt 0.093750 0.500000
vt 0.062500 0.500000
vt 0.031250 0.500000
vt 0.781250 0.500000
vt 0.218750 0.500000
vt 0.496159 0.500000
vt 0.490210 0.500000
vt 0.638705 0.500000
vt 0.635730 0.500000
vt 0.357455 0.500000
vt 0.354480 0.500000
vt 0.781250 0.500000
vt 0.218750 0.500000
vt 0.487015 0.500000
vt 0.634133 0.500000
vt 0.352883 0.500000
vt 0.000000 0.000000
vt 0.000000 0.000000
vt 0.000000 0.000000
vt 0.000000 0.000000
vt 0.781250 0.500000
vt 0.218750 0.500000
vt 0.781249 0.500000
vt 0.213787 0.500000
vt 0.786213 0.500000
vt 0.218081 0.500000
vt 0.781919 0.500000
vt 0.218751 0.500000
vt 0.781250 0.500000
vt 0.218756 0.500000
vt 0.781243 0.500000
vt 0.218750 0.500000
vt 0.781250 0.500000
vt 0.218750 0.500000
vt 0.781249 0.500000
vt 0.213787 0.500000
vt 0.786213 0.500000
vt 0.218081 0.500000
vt 0.781919 0.500000
vt 0.218751 0.500000
vt 0.781250 0.500000
vt 0.218756 0.500000
vt 0.781243 0.500000
vt 0.218750 0.500000
vt 0.781250 0.500000
vt 0.218750 0.500000
vt 0.781249 0.500000
vt 0.213787 0.500000
vt 0.786213 0.500000
vt 0.218081 0.500000
vt 0.781919 0.500000
vt 0.218751 0.500000
vt 0.781250 0.500000
vt 0.218756 0.500000
vt 0.781243 0.500000
vt 0.218750 0.500000
vt 0.781250 0.500000
vt 0.218750 0.500000
vt 1.000000 0.500000
vt 0.000000 0.500000
vt 0.968750 0.500000
vt 0.937500 0.500000
vt 0.906250 0.500000
vt 0.875000 0.500000
vt 0.843750 0.500000
vt 0.812500 0.500000
vt 0.781250 0.500000
vt 0.218750 0.500000
vt 0.187500 0.500000
vt 0.156250 0.500000
vt 0.125000 0.500000
vt 0.093750 0.500000
vt 0.062500 0.500000
vt 0.031250 0.500000
vt 0.781250 0.500000
vt 0.218750 0.500000
vt 0.781250 0.500000
vt 0.218750 0.500000
vt 0.781250 0.500000
vt 0.218750 0.500000
vt 0.000000 1.000000
vt 1.000000 1.000000
vt 0.968750 1.000000
vt 0.937500 1.000000
vt 0.906250 1.000000
vt 0.875000 1.000000
vt 0.843750 1.000000
vt 0.812500 1.000000
vt 0.781250 1.000000
vt 0.218750 1.000000
vt 0.187500 1.000000
vt 0.156250 1.000000
vt 0.125000 1.000000
vt 0.093750 1.000000
vt 0.062500 1.000000
vt 0.031250 1.000000
vt 0.000000 1.000000
vt 1.000000 1.000000
vt 0.000000 0.000000
vt 0.968750 1.000000
vt 0.000000 0.000000
vt 0.937500 1.000000
vt 0.000000 0.000000
vt 0.906250 1.000000
vt 0.000000 0.000000
vt 0.875000 1.000000
vt 0.000000 0.000000
vt 0.843750 1.000000
vt 0.000000 0.000000
vt 0.812500 1.000000
vt 0.000000 0.000000
vt 0.781250 1.000000
vt 0.218750 1.000000
vt 0.000000 0.000000
vt 0.187500 1.000000
vt 0.156250 1.000000
vt 0.000000 0.000000
vt 0.125000 1.000000
vt 0.000000 0.000000
vt 0.093750 1.000000
vt 0.000000 0.000000
vt 0.062500 1.000000
vt 0.000000 0.000000
vt 0.031250 1.000000
vt 0.000000 0.000000
s 0
usemtl beetl
f 98/127/1 22/23/1 23/24/1 100/129/1
f 97/126/2 20/20/2 21/21/2 99/128/2
f 100/129/3 23/24/3 24/26/3 102/131/3
f 102/131/4 24/26/4 36/45/4 114/144/4
f 83/108/5 85/110/5 19/19/5 42/53/5 53/66/5 55/70/5 58/74/5 47/60/5
f 99/128/6 21/21/6 27/31/6 104/133/6
f 104/133/7 27/31/7 29/34/7 106/135/7
f 106/135/8 29/34/8 30/35/8 108/137/8
f 110/139/9 32/38/9 34/41/9 112/142/9
f 108/137/10 30/35/10 32/38/10 110/139/10
f 120/150/11 96/125/11 35/42/11 111/140/11
f 114/144/12 36/45/12 38/49/12 116/146/12
f 118/148/13 94/121/13 39/50/13 115/145/13
f 1/1/14 2/2/14 21/21/14 20/20/14
f 4/4/15 3/3/15 23/25/15 22/22/15
f 3/3/16 6/6/16 24/27/16 23/25/16
f 5/5/17 1/1/17 20/20/17 25/28/17
f 8/8/18 4/4/18 22/22/18 26/29/18
f 2/2/19 7/7/19 27/31/19 21/21/19
f 10/10/20 8/8/20 26/29/20 28/32/20
f 7/7/21 9/9/21 29/34/21 27/31/21
f 9/9/22 11/11/22 30/35/22 29/34/22
f 12/12/23 10/10/23 28/32/23 31/36/23
f 11/11/24 13/13/24 32/38/24 30/35/24
f 14/14/25 12/12/25 31/36/25 33/39/25
f 92/117/26 49/62/26 35/43/26 96/124/26
f 13/13/27 48/61/27 34/41/27 32/38/27
f 49/62/28 14/14/28 33/39/28 35/43/28
f 6/6/29 17/17/29 36/46/29 24/27/29
f 16/16/30 5/5/30 25/28/30 37/47/30
f 90/115/31 52/65/31 39/50/31 94/120/31
f 17/17/32 51/64/32 38/48/32 36/46/32
f 52/65/33 16/16/33 37/47/33 39/50/33
f 62/79/34 40/51/34 2/2/34 1/1/34
f 41/52/35 54/69/35 3/3/35 4/4/35
f 54/67/36 6/6/36 3/3/36
f 62/79/37 1/1/37 5/5/37
f 43/54/38 41/52/38 4/4/38 8/8/38
f 40/51/39 44/55/39 7/7/39 2/2/39
f 45/56/40 43/54/40 8/8/40 10/10/40
f 44/55/41 46/58/41 9/9/41 7/7/41
f 46/59/42 11/11/42 9/9/42
f 45/56/43 10/10/43 12/12/43
f 46/59/44 63/82/44 13/13/44 11/11/44
f 64/85/45 45/57/45 12/12/45 14/14/45
f 84/109/46 64/84/46 49/62/46 92/117/46
f 63/83/47 48/61/47 13/13/47
f 64/85/48 14/14/48 49/62/48
f 54/68/49 17/17/49 6/6/49
f 62/80/50 5/5/50 16/16/50
f 88/113/51 61/78/51 52/65/51 90/115/51
f 54/68/52 60/77/52 51/64/52 17/17/52
f 61/78/53 62/81/53 16/16/53 52/65/53
f 53/66/54 42/53/54 54/69/54 41/52/54
f 55/70/55 53/66/55 41/52/55 43/54/55
f 57/72/56 56/71/56 44/55/56 40/51/56
f 58/73/57 55/70/57 43/54/57 45/56/57
f 56/71/58 59/76/58 46/58/58 44/55/58
f 87/112/59 18/18/59 61/78/59 88/113/59
f 18/18/60 50/63/60 62/81/60 61/78/60
f 83/108/61 47/60/61 64/85/61 84/109/61
f 50/63/62 57/72/62 40/51/62 62/81/62
f 59/75/63 15/15/63 63/82/63 46/59/63
f 47/60/64 58/74/64 45/57/64 64/85/64
f 42/53/65 19/19/65 60/77/65 54/69/65
f 15/15/61 81/106/61 82/107/61 63/82/61
f 79/104/61 80/105/61 76/101/61 75/100/61
f 19/19/59 85/110/59 86/111/59 60/77/59
f 77/102/66 78/103/66 74/99/66 73/98/66
f 60/77/67 86/111/67 89/114/67 51/64/67
f 73/98/68 74/99/68 72/97/68 71/96/68
f 63/83/46 82/107/46 91/116/46 48/61/46
f 75/100/46 76/101/46 70/95/46 69/94/46
f 51/64/69 89/114/69 93/118/69 38/48/69
f 71/96/70 72/97/70 68/92/70 67/90/70
f 48/61/26 91/116/26 95/122/26 34/41/26
f 69/94/71 70/95/71 66/88/71 65/86/71
f 116/146/72 38/49/72 93/119/72 117/147/72
f 112/142/11 34/41/11 95/123/11 119/149/11
f 123/153/73 65/87/73 66/89/73 124/154/73
f 50/63/5 18/18/5 87/112/5 81/106/5 15/15/5 59/76/5 56/71/5 57/72/5
f 79/104/5 78/103/5 77/102/5 80/105/5
f 79/104/74 75/100/74 82/107/74 81/106/74
f 76/101/75 80/105/75 83/108/75 84/109/75
f 77/102/76 73/98/76 86/111/76 85/110/76
f 74/99/77 78/103/77 87/112/77 88/113/77
f 73/98/78 71/96/78 89/114/78 86/111/78
f 72/97/79 74/99/79 88/113/79 90/115/79
f 75/100/80 69/94/80 91/116/80 82/107/80
f 70/95/81 76/101/81 84/109/81 92/117/81
f 71/96/82 67/90/82 93/118/82 89/114/82
f 68/92/83 72/97/83 90/115/83 94/120/83
f 69/94/84 65/86/84 95/122/84 91/116/84
f 66/88/85 70/95/85 92/117/85 96/124/85
f 122/152/86 68/93/86 94/121/86 118/148/86
f 124/154/87 66/89/87 96/125/87 120/150/87
f 78/103/88 79/104/88 81/106/88 87/112/88
f 80/105/89 77/102/89 85/110/89 83/108/89
f 65/87/90 123/153/90 119/149/90 95/123/90
f 67/91/91 121/151/91 117/147/91 93/119/91
f 37/47/92 113/143/92 115/145/92 39/50/92
f 25/28/93 101/130/93 113/143/93 37/47/93
f 33/40/94 109/138/94 111/141/94 35/44/94
f 31/37/95 107/136/95 109/138/95 33/40/95
f 28/33/96 105/134/96 107/136/96 31/37/96
f 26/30/97 103/132/97 105/134/97 28/33/97
f 20/20/98 97/126/98 101/130/98 25/28/98
f 22/23/99 98/127/99 103/132/99 26/30/99
f 125/155/100 126/158/100 128/160/100 127/159/100
f 127/159/101 128/160/101 130/162/101 129/161/101
f 129/161/102 130/162/102 132/164/102 131/163/102
f 131/163/103 132/164/103 134/166/103 133/165/103
f 133/165/104 134/166/104 136/168/104 135/167/104
f 135/167/105 136/168/105 138/170/105 137/169/105
f 137/169/106 138/170/106 140/172/106 139/171/106
f 141/173/107 142/174/107 144/176/107 143/175/107
f 143/175/108 144/176/108 146/178/108 145/177/108
f 145/177/109 146/178/109 148/180/109 147/179/109
f 147/179/110 148/180/110 150/182/110 149/181/110
f 149/181/111 150/182/111 152/184/111 151/183/111
f 151/183/112 152/184/112 154/186/112 153/185/112
f 153/185/113 154/186/113 126/157/113 125/156/113
f 143/175/114 145/177/114 165/198/114 164/197/114
f 133/165/115 135/167/115 160/193/115 159/192/115
f 125/155/116 127/159/116 156/189/116 155/187/116
f 153/185/117 125/156/117 155/188/117 169/202/117
f 145/177/118 147/179/118 166/199/118 165/198/118
f 135/167/119 137/169/119 161/194/119 160/193/119
f 127/159/120 129/161/120 157/190/120 156/189/120
f 147/179/121 149/181/121 167/200/121 166/199/121
f 137/169/122 139/171/122 162/195/122 161/194/122
f 129/161/123 131/163/123 158/191/123 157/190/123
f 149/181/124 151/183/124 168/201/124 167/200/124
f 141/173/125 143/175/125 164/197/125 163/196/125
f 131/163/126 133/165/126 159/192/126 158/191/126
f 151/183/127 153/185/127 169/202/127 168/201/127
f 163/196/128 164/197/128 179/213/128 178/212/128
f 164/197/129 165/198/129 180/214/129 179/213/129
f 155/187/130 156/189/130 171/205/130 170/203/130
f 165/198/131 166/199/131 181/215/131 180/214/131
f 156/189/132 157/190/132 172/206/132 171/205/132
f 166/199/133 167/200/133 182/216/133 181/215/133
f 157/190/134 158/191/134 173/207/134 172/206/134
f 167/200/135 168/201/135 183/217/135 182/216/135
f 158/191/136 159/192/136 174/208/136 173/207/136
f 168/201/137 169/202/137 184/218/137 183/217/137
f 159/192/138 160/193/138 175/209/138 174/208/138
f 169/202/139 155/188/139 170/204/139 184/218/139
f 160/193/140 161/194/140 176/210/140 175/209/140
f 161/194/141 162/195/141 177/211/141 176/210/141
f 179/213/142 180/214/142 195/230/142 194/229/142
f 170/203/143 171/205/143 186/221/143 185/220/143
f 180/214/144 181/215/144 196/231/144 195/230/144
f 171/205/145 172/206/145 187/222/145 186/221/145
f 181/215/146 182/216/146 197/232/146 196/231/146
f 172/206/147 173/207/147 188/223/147 187/222/147
f 182/216/148 183/217/148 198/233/148 197/232/148
f 173/207/149 174/208/149 189/224/149 188/223/149
f 183/217/150 184/218/150 199/234/150 198/233/150
f 174/208/151 175/209/151 190/225/151 189/224/151
f 184/218/152 170/204/152 185/219/152 199/234/152
f 175/209/153 176/210/153 191/226/153 190/225/153
f 176/210/154 177/211/154 192/227/154 191/226/154
f 178/212/155 179/213/155 194/229/155 193/228/155
f 251/290/156 252/291/156 248/287/156 249/288/156
f 187/222/157 188/223/157 203/239/157 202/238/157
f 197/232/158 198/233/158 224/261/158 223/260/158
f 188/223/159 189/224/159 204/240/159 203/239/159
f 198/233/160 199/234/160 225/262/160 224/261/160
f 189/224/161 190/225/161 205/241/161 204/240/161
f 199/234/162 185/219/162 200/235/162 225/262/162
f 190/225/163 191/226/163 206/242/163 205/241/163
f 191/226/164 192/227/164 207/243/164 206/242/164
f 266/306/165 267/307/165 236/274/165 237/275/165
f 267/307/166 250/289/166 235/273/166 236/274/166
f 249/288/167 248/287/167 218/255/167 234/272/167
f 248/287/168 247/286/168 217/254/168 218/255/168
f 245/283/169 246/285/169 216/253/169 214/250/169
f 193/228/170 194/229/170 220/257/170 219/256/170
f 194/229/171 195/230/171 221/258/171 220/257/171
f 185/220/172 186/221/172 201/237/172 200/236/172
f 195/230/173 196/231/173 222/259/173 221/258/173
f 186/221/174 187/222/174 202/238/174 201/237/174
f 196/231/175 197/232/175 223/260/175 222/259/175
f 201/237/176 202/238/176 273/313/176 276/317/176
f 281/322/177 282/323/177 232/270/177 231/269/177
f 252/291/178 253/292/178 247/286/178 248/287/178
f 282/323/179 280/321/179 233/271/179 232/270/179
f 226/263/180 227/265/180 246/285/180 245/283/180
f 247/286/181 244/282/181 215/252/181 217/254/181
f 253/292/182 254/293/182 244/282/182 247/286/182
f 246/285/183 243/281/183 213/249/183 216/253/183
f 227/265/184 228/266/184 243/281/184 246/285/184
f 244/282/185 242/280/185 212/248/185 215/252/185
f 254/293/186 255/294/186 242/280/186 244/282/186
f 243/281/187 241/279/187 211/247/187 213/249/187
f 228/266/188 229/267/188 241/279/188 243/281/188
f 242/280/189 240/278/189 210/246/189 212/248/189
f 279/320/190 278/319/190 252/291/190 251/290/190
f 241/279/191 239/277/191 209/245/191 211/247/191
f 278/319/192 277/318/192 253/292/192 252/291/192
f 240/278/193 238/276/193 208/244/193 210/246/193
f 275/316/194 276/317/194 227/265/194 226/263/194
f 277/318/195 274/314/195 254/293/195 253/292/195
f 239/277/196 266/306/196 237/275/196 209/245/196
f 276/317/197 273/313/197 228/266/197 227/265/197
f 274/314/198 272/312/198 255/294/198 254/293/198
f 238/276/199 245/284/199 214/251/199 208/244/199
f 273/313/200 271/311/200 229/267/200 228/266/200
f 272/312/201 270/310/201 256/295/201 255/294/201
f 231/269/202 232/270/202 267/307/202 266/306/202
f 271/311/203 269/309/203 230/268/203 229/267/203
f 270/310/204 268/308/204 257/296/204 256/295/204
f 232/270/205 233/271/205 250/289/205 267/307/205
f 269/309/206 281/322/206 231/269/206 230/268/206
f 268/308/207 275/315/207 226/264/207 257/296/207
f 225/262/208 200/235/208 275/315/208 268/308/208
f 237/275/209 236/274/209 264/304/209 263/303/209
f 222/259/210 223/260/210 272/312/210 274/314/210
f 236/274/211 235/273/211 265/305/211 264/304/211
f 202/238/212 203/239/212 271/311/212 273/313/212
f 255/294/213 256/295/213 240/278/213 242/280/213
f 223/260/214 224/261/214 270/310/214 272/312/214
f 229/267/215 230/268/215 239/277/215 241/279/215
f 203/239/216 204/240/216 269/309/216 271/311/216
f 256/295/217 257/296/217 238/276/217 240/278/217
f 224/261/218 225/262/218 268/308/218 270/310/218
f 230/268/219 231/269/219 266/306/219 239/277/219
f 204/240/220 205/241/220 281/322/220 269/309/220
f 257/296/221 226/264/221 245/284/221 238/276/221
f 234/272/222 218/255/222 284/325/222 283/324/222
f 205/241/223 206/242/223 282/323/223 281/322/223
f 218/255/224 217/254/224 285/326/224 284/325/224
f 206/242/225 207/243/225 280/321/225 282/323/225
f 214/250/226 216/253/226 259/299/226 258/298/226
f 217/254/227 215/252/227 286/327/227 285/326/227
f 219/256/228 220/257/228 278/319/228 279/320/228
f 216/253/229 213/249/229 260/300/229 259/299/229
f 215/252/230 212/248/230 287/328/230 286/327/230
f 220/257/231 221/258/231 277/318/231 278/319/231
f 213/249/232 211/247/232 261/301/232 260/300/232
f 212/248/233 210/246/233 288/329/233 287/328/233
f 200/236/234 201/237/234 276/317/234 275/316/234
f 211/247/235 209/245/235 262/302/235 261/301/235
f 210/246/236 208/244/236 289/330/236 288/329/236
f 221/258/237 222/259/237 274/314/237 277/318/237
f 209/245/238 237/275/238 263/303/238 262/302/238
f 208/244/239 214/251/239 258/297/239 289/330/239
f 140/172/240 373/416/240 388/439/240 389/440/240 374/417/240 142/174/240 141/173/240 163/196/240 178/212/240 296/337/240 292/333/240 294/335/240 177/211/240 162/195/240 139/171/240
f 294/335/241 292/333/241 293/334/241 295/336/241
f 177/211/242 294/335/242 295/336/242 290/331/242
f 297/338/243 296/337/243 178/212/243 291/332/243
f 293/334/244 292/333/244 296/337/244 297/338/244
f 297/338/245 291/332/245 299/340/245 302/343/245
f 290/331/246 295/336/246 301/342/246 298/339/246
f 293/334/247 297/338/247 302/343/247 300/341/247
f 295/336/248 293/334/248 300/341/248 301/342/248
f 193/228/249 291/332/249 178/212/249
f 177/211/250 290/331/250 192/227/250
f 299/340/251 291/332/251 193/228/251 304/345/251
f 303/344/252 192/227/252 290/331/252 298/339/252
f 301/342/253 305/346/253 303/344/253 298/339/253
f 306/347/254 302/343/254 299/340/254 304/345/254
f 301/342/255 300/341/255 302/343/255 306/347/255 305/346/255
f 249/288/256 234/272/256 310/351/256 312/353/256
f 265/305/257 235/273/257 311/352/257 315/356/257
f 251/290/258 249/288/258 312/353/258 314/355/258
f 233/271/259 280/321/259 317/358/259 309/350/259
f 219/256/260 279/320/260 316/357/260 308/349/260
f 250/289/261 233/271/261 309/350/261 313/354/261
f 280/321/262 207/243/262 307/348/262 317/358/262
f 234/272/263 283/324/263 318/359/263 310/351/263
f 235/273/264 250/289/264 313/354/264 311/352/264
f 279/320/265 251/290/265 314/355/265 316/357/265
f 311/352/266 313/354/266 325/366/266 323/364/266
f 315/356/267 311/352/267 323/364/267 327/368/267
f 316/357/268 314/355/268 326/367/268 328/369/268
f 313/354/269 309/350/269 321/362/269 325/366/269
f 310/351/270 318/359/270 330/371/270 322/363/270
f 308/349/271 316/357/271 328/369/271 320/361/271
f 312/353/272 310/351/272 322/363/272 324/365/272
f 314/355/273 312/353/273 324/365/273 326/367/273
f 317/358/274 307/348/274 319/360/274 329/370/274
f 309/350/275 317/358/275 329/370/275 321/362/275
f 320/361/276 328/369/276 340/381/276 332/373/276
f 324/365/277 322/363/277 334/375/277 336/377/277
f 326/367/278 324/365/278 336/377/278 338/379/278
f 329/370/279 319/360/279 331/372/279 341/382/279
f 321/362/280 329/370/280 341/382/280 333/374/280
f 323/364/281 325/366/281 337/378/281 335/376/281
f 327/368/282 323/364/282 335/376/282 339/380/282
f 328/369/283 326/367/283 338/379/283 340/381/283
f 325/366/284 321/362/284 333/374/284 337/378/284
f 322/363/285 330/371/285 342/383/285 334/375/285
f 335/376/286 337/378/286 333/374/286 341/382/286 331/372/286 332/373/286 340/381/286 338/379/286 336/377/286 334/375/286 342/383/286 339/380/286
f 207/243/287 192/227/287 303/344/287 307/348/287
f 219/256/288 308/349/288 304/345/288 193/228/288
f 305/346/289 319/360/289 307/348/289 303/344/289
f 304/345/290 308/349/290 320/361/290 306/347/290
f 332/373/291 331/372/291 343/384/291 344/385/291
f 305/346/292 306/347/292 344/385/292 343/384/292
f 332/373/293 344/385/293 306/347/293 320/361/293
f 331/372/294 319/360/294 305/346/294 343/384/294
f 288/329/295 289/330/295 359/401/295 358/400/295
f 318/359/296 283/324/296 353/395/296 361/403/296
f 259/299/297 260/300/297 347/389/297 346/388/297
f 289/330/298 258/297/298 345/387/298 359/401/298
f 260/300/299 261/301/299 348/390/299 347/389/299
f 339/380/300 342/383/300 365/407/300 364/406/300
f 330/371/301 318/359/301 361/403/301 363/405/301
f 283/324/302 284/325/302 354/396/302 353/395/302
f 261/301/303 262/302/303 349/391/303 348/390/303
f 284/325/304 285/326/304 355/397/304 354/396/304
f 262/302/305 263/303/305 350/392/305 349/391/305
f 285/326/306 286/327/306 356/398/306 355/397/306
f 263/303/307 264/304/307 351/393/307 350/392/307
f 286/327/308 287/328/308 357/399/308 356/398/308
f 264/304/309 265/305/309 352/394/309 351/393/309
f 315/356/310 327/368/310 362/404/310 360/402/310
f 327/368/311 339/380/311 364/406/311 362/404/311
f 287/328/312 288/329/312 358/400/312 357/399/312
f 265/305/313 315/356/313 360/402/313 352/394/313
f 258/298/314 259/299/314 346/388/314 345/386/314
f 342/383/315 330/371/315 363/405/315 365/407/315
f 346/388/316 347/389/316 348/390/316 349/391/316 350/392/316 351/393/316 352/394/316 360/402/316 362/404/316 364/406/316 365/407/316 363/405/316 361/403/316 353/395/316 354/396/316 355/397/316 356/398/316 357/399/316 358/400/316 359/401/316 345/387/316
f 150/182/317 148/180/317 377/420/317 378/421/317
f 134/166/318 132/164/318 369/412/318 370/413/318
f 146/178/319 144/176/319 375/418/319 376/419/319
f 126/157/320 154/186/320 380/423/320 366/408/320
f 130/162/321 128/160/321 367/410/321 368/411/321
f 140/172/322 138/170/322 372/415/322 373/416/322
f 152/184/323 150/182/323 378/421/323 379/422/323
f 136/168/324 134/166/324 370/413/324 371/414/324
f 148/180/325 146/178/325 376/419/325 377/420/325
f 132/164/326 130/162/326 368/411/326 369/412/326
f 128/160/327 126/158/327 366/409/327 367/410/327
f 144/176/328 142/174/328 374/417/328 375/418/328
f 154/186/329 152/184/329 379/422/329 380/423/329
f 138/170/330 136/168/330 371/414/330 372/415/330
f 380/423/331 379/422/331 394/449/331 395/451/331
f 372/415/332 371/414/332 386/435/332 387/437/332
f 366/408/333 380/423/333 395/451/333 381/424/333
f 373/416/334 372/415/334 387/437/334 388/439/334
f 375/418/335 374/417/335 389/440/335 390/442/335
f 367/410/336 366/409/336 381/425/336 382/427/336
f 376/419/337 375/418/337 390/442/337 391/443/337
f 368/411/338 367/410/338 382/427/338 383/429/338
f 377/420/339 376/419/339 391/443/339 392/445/339
f 369/412/340 368/411/340 383/429/340 384/431/340
f 378/421/341 377/420/341 392/445/341 393/447/341
f 370/413/342 369/412/342 384/431/342 385/433/342
f 379/422/343 378/421/343 393/447/343 394/449/343
f 371/414/344 370/413/344 385/433/344 386/435/344
f 382/428/345 383/430/345 384/432/345 381/426/345
f 394/450/346 395/452/346 381/426/346 393/448/346
f 385/434/316 386/436/316 387/438/316 384/432/316
f 391/444/316 392/446/316 393/448/316 390/441/316
f 381/426/347 384/432/347 387/438/347 390/441/347 393/448/347
f 121/151/348 67/91/348 390/442/348 389/440/348
f 68/93/349 122/152/349 388/439/349 387/437/349
f 67/91/350 68/93/350 387/438/350 390/442/350
f 388/439/351 122/152/351 121/151/351 389/440/351
f 124/154/352 120/150/352 111/141/352 109/138/352 107/136/352 105/134/352 103/132/352 98/127/352 100/129/352 102/131/352 114/144/352 116/146/352 117/147/352 121/151/352 122/152/352 118/148/352 115/145/352 113/143/352 101/130/352 97/126/352 99/128/352 104/133/352 106/135/352 108/137/352 110/139/352 112/142/352 119/149/352 123/153/352
