# Blender 4.2.2 LTS
# www.blender.org
mtllib coffee.mtl
o Cylinder
v -0.012941 -0.000501 -0.048296
v -0.012941 0.099499 -0.048296
v 0.012941 -0.000501 -0.048296
v 0.012941 0.099499 -0.048296
v 0.035355 -0.000501 -0.035355
v 0.035355 0.099499 -0.035355
v 0.048296 -0.000501 -0.012941
v 0.048296 0.099499 -0.012941
v 0.048296 -0.000501 0.012941
v 0.048296 0.099499 0.012941
v 0.035355 -0.000501 0.035355
v 0.035355 0.099499 0.035355
v 0.005906 0.031938 0.056005
v 0.005906 0.073986 0.056005
v -0.005906 0.031938 0.056005
v -0.005906 0.073986 0.056005
v -0.035355 -0.000501 0.035355
v -0.035355 0.099499 0.035355
v -0.048296 -0.000501 0.012941
v -0.048296 0.099499 0.012941
v -0.048296 -0.000501 -0.012941
v -0.048296 0.099499 -0.012941
v -0.035355 -0.000501 -0.035355
v -0.035355 0.099499 -0.035355
v -0.011674 -0.011093 -0.043568
v 0.011674 -0.011093 -0.043568
v 0.031894 -0.011093 -0.031894
v 0.043568 -0.011093 -0.011674
v 0.043568 -0.011093 0.011674
v 0.031894 -0.011093 0.031894
v 0.011674 -0.011093 0.043568
v -0.011674 -0.011093 0.043568
v -0.031894 -0.011093 0.031894
v -0.043568 -0.011093 0.011674
v -0.043568 -0.011093 -0.011674
v -0.031894 -0.011093 -0.031894
v -0.009933 -0.011817 -0.037069
v 0.009933 -0.011817 -0.037069
v 0.027136 -0.011817 -0.027136
v 0.037069 -0.011817 -0.009933
v 0.037069 -0.011817 0.009933
v 0.027136 -0.011817 0.027136
v 0.009933 -0.011817 0.037069
v -0.009933 -0.011817 0.037069
v -0.027136 -0.011817 0.027136
v -0.037069 -0.011817 0.009933
v -0.037069 -0.011817 -0.009933
v -0.027136 -0.011817 -0.027136
v -0.009933 -0.015435 -0.037069
v 0.009933 -0.015435 -0.037069
v 0.027136 -0.015435 -0.027136
v 0.037069 -0.015435 -0.009933
v 0.037069 -0.015435 0.009933
v 0.027136 -0.015435 0.027136
v 0.009933 -0.015435 0.037069
v -0.009933 -0.015435 0.037069
v -0.027136 -0.015435 0.027136
v -0.037069 -0.015435 0.009933
v -0.037069 -0.015435 -0.009933
v -0.027136 -0.015435 -0.027136
v -0.008932 -0.015435 -0.033333
v 0.008932 -0.015435 -0.033333
v 0.024401 -0.015435 -0.024401
v 0.033333 -0.015435 -0.008932
v 0.033333 -0.015435 0.008932
v 0.024401 -0.015435 0.024401
v 0.008932 -0.015435 0.033333
v -0.008932 -0.015435 0.033333
v -0.024401 -0.015435 0.024401
v -0.033333 -0.015435 0.008932
v -0.033333 -0.015435 -0.008932
v -0.024401 -0.015435 -0.024401
v -0.008932 -0.012286 -0.033333
v 0.008932 -0.012286 -0.033333
v 0.024401 -0.012286 -0.024401
v 0.033333 -0.012286 -0.008932
v 0.033333 -0.012286 0.008932
v 0.024401 -0.012286 0.024401
v 0.008932 -0.012286 0.033333
v -0.008932 -0.012286 0.033333
v -0.024401 -0.012286 0.024401
v -0.033333 -0.012286 0.008932
v -0.033333 -0.012286 -0.008932
v -0.024401 -0.012286 -0.024401
v 0.010639 0.099499 -0.039704
v -0.010639 0.099499 -0.039704
v 0.029065 0.099499 -0.029065
v 0.039704 0.099499 -0.010639
v 0.039704 0.099499 0.010639
v 0.029065 0.099499 0.029065
v 0.010639 0.099499 0.039704
v -0.010639 0.099499 0.039704
v -0.029065 0.099499 0.029065
v -0.039704 0.099499 0.010639
v -0.039704 0.099499 -0.010639
v -0.029065 0.099499 -0.029065
v 0.010639 0.082380 -0.039704
v -0.010639 0.082380 -0.039704
v 0.029065 0.082380 -0.029065
v 0.039704 0.082380 -0.010639
v 0.039704 0.082380 0.010639
v 0.029065 0.082380 0.029065
v 0.010639 0.082380 0.039704
v -0.010639 0.082380 0.039704
v -0.029065 0.082380 0.029065
v -0.039704 0.082380 0.010639
v -0.039704 0.082380 -0.010639
v -0.029065 0.082380 -0.029065
v 0.012941 0.099499 0.048296
v 0.012941 -0.000501 0.048296
v -0.012941 -0.000501 0.048296
v -0.012941 0.099499 0.048296
v 0.005906 0.076715 0.076081
v 0.005906 0.044057 0.076081
v -0.005906 0.044057 0.076081
v -0.005906 0.076715 0.076081
v 0.005906 0.080718 0.048296
v 0.005906 0.018280 0.048296
v -0.005906 0.080718 0.048296
v -0.005906 0.018280 0.048296
v 0.005906 0.085542 0.083790
v 0.005906 0.039706 0.083790
v -0.005906 0.085542 0.083790
v -0.005906 0.039706 0.083790
vn -0.2532 -0.2077 -0.9449
vn -0.0000 -0.0000 -1.0000
vn 0.2588 -0.0000 -0.9659
vn 0.2532 -0.2077 -0.9449
vn 0.7071 -0.0000 -0.7071
vn 0.6917 -0.2077 -0.6917
vn 0.8660 -0.0000 -0.5000
vn 0.9449 -0.2077 -0.2532
vn 1.0000 -0.0000 -0.0000
vn 0.9659 -0.0000 0.2588
vn 0.9449 -0.2077 0.2532
vn 0.7071 -0.0000 0.7071
vn 0.6917 -0.2077 0.6917
vn 0.5000 -0.0000 0.8660
vn 0.2532 -0.2077 0.9449
vn -0.0000 -0.8561 0.5168
vn -0.2532 -0.2077 0.9449
vn -0.2588 -0.0000 0.9659
vn -0.7071 -0.0000 0.7071
vn -0.6917 -0.2077 0.6917
vn -0.8660 -0.0000 0.5000
vn -0.9449 -0.2077 0.2532
vn -1.0000 -0.0000 -0.0000
vn -0.9659 -0.0000 -0.2588
vn -0.9449 -0.2077 -0.2532
vn -0.0000 1.0000 -0.0000
vn -0.7071 -0.0000 -0.7071
vn -0.6917 -0.2077 -0.6917
vn -0.5000 -0.0000 -0.8660
vn 0.8768 -0.4195 -0.2349
vn 0.6419 -0.4195 -0.6419
vn 0.1034 -0.9943 -0.0277
vn 0.1034 -0.9943 0.0277
vn -0.6419 -0.4195 -0.6419
vn -0.8768 -0.4195 -0.2349
vn 0.2349 -0.4195 -0.8768
vn -0.8768 -0.4195 0.2349
vn -0.6419 -0.4195 0.6419
vn -0.2349 -0.4195 0.8768
vn 0.2349 -0.4195 0.8768
vn 0.6419 -0.4195 0.6419
vn 0.8768 -0.4195 0.2349
vn -0.2349 -0.4195 -0.8768
vn -0.1034 -0.9943 -0.0277
vn -0.0757 -0.9943 -0.0757
vn -0.0277 -0.9943 -0.1034
vn 0.0277 -0.9943 -0.1034
vn -0.0277 -0.9943 0.1034
vn -0.0757 -0.9943 0.0757
vn 0.0757 -0.9943 0.0757
vn 0.0757 -0.9943 -0.0757
vn -0.1034 -0.9943 0.0277
vn 0.0277 -0.9943 0.1034
vn -0.0000 -1.0000 -0.0000
vn -0.0000 -0.0000 1.0000
vn 0.5000 -0.0000 -0.8660
vn -0.8660 -0.0000 -0.5000
vn 0.2588 -0.0000 0.9659
vn -0.5000 -0.0000 0.8660
vn 0.9659 -0.0000 -0.2588
vn -0.2588 -0.0000 -0.9659
vn -0.9659 -0.0000 0.2588
vn 0.8660 -0.0000 0.5000
vn -0.0000 0.9909 -0.1347
vn -0.0000 -0.9909 0.1347
vn -0.0000 0.8561 -0.5168
vt 1.000000 0.500000
vt 1.000000 1.000000
vt 0.916667 1.000000
vt 0.916667 0.500000
vt 0.833333 1.000000
vt 0.833333 0.500000
vt 0.750000 1.000000
vt 0.750000 0.500000
vt 0.666667 1.000000
vt 0.666667 0.500000
vt 0.583333 1.000000
vt 0.583333 0.500000
vt 0.500000 1.000000
vt 0.500000 0.500000
vt 0.430495 0.521475
vt 0.486172 0.521475
vt 0.416667 0.500000
vt 0.416667 1.000000
vt 0.333333 1.000000
vt 0.333333 0.500000
vt 0.250000 1.000000
vt 0.250000 0.500000
vt 0.166667 1.000000
vt 0.166667 0.500000
vt 0.083333 1.000000
vt 0.083333 0.500000
vt 0.000000 1.000000
vt 0.000000 0.500000
vt 0.750000 0.490000
vt 0.870000 0.457846
vt 0.957846 0.370000
vt 0.990000 0.250000
vt 0.957846 0.130000
vt 0.870000 0.042154
vt 0.750000 0.010000
vt 0.630000 0.042154
vt 0.542154 0.130000
vt 0.510000 0.250000
vt 0.542154 0.370000
vt 0.630000 0.457846
vt 0.370000 0.457846
vt 0.250000 0.490000
vt 0.130000 0.457846
vt 0.042154 0.370000
vt 0.010000 0.250000
vt 0.042154 0.130000
vt 0.130000 0.042154
vt 0.250000 0.010000
vt 0.370000 0.042154
vt 0.457846 0.130000
vt 0.490000 0.250000
vt 0.457846 0.370000
vt 0.486172 0.978525
vt 0.430495 0.978525
vt 0.430495 0.914854
vt 0.486172 0.914854
vt 0.486172 0.906456
vt 0.430495 0.906456
vt 0.486172 0.590379
vt 0.430495 0.590379
vt 0.486172 0.599037
vt 0.430495 0.599037
s 1
usemtl Material.003
f 1/1/1 2/2/2 4/3/3 3/4/4
f 3/4/4 4/3/3 6/5/5 5/6/6
f 5/6/6 6/5/5 8/7/7 7/8/8
f 7/8/8 8/7/9 10/9/10 9/10/11
f 9/10/11 10/9/10 12/11/12 11/12/13
f 11/12/13 12/11/12 109/13/14 110/14/15
f 120/15/16 118/16/16 122/16/16 124/15/16
f 111/17/17 112/18/18 18/19/19 17/20/20
f 17/20/20 18/19/19 20/21/21 19/22/22
f 19/22/22 20/21/23 22/23/24 21/24/25
f 112/18/26 109/13/26 91/13/26 92/18/26
f 21/24/25 22/23/24 24/25/27 23/26/28
f 23/26/28 24/25/27 2/27/29 1/28/1
f 5/6/6 7/8/8 28/8/30 27/6/31
f 28/8/32 29/10/33 41/10/33 40/8/32
f 21/24/25 23/26/28 36/26/34 35/24/35
f 3/4/4 5/6/6 27/6/31 26/4/36
f 19/22/22 21/24/25 35/24/35 34/22/37
f 17/20/20 19/22/22 34/22/37 33/20/38
f 111/17/17 17/20/20 33/20/38 32/17/39
f 110/14/15 111/17/17 32/17/39 31/14/40
f 11/12/13 110/14/15 31/14/40 30/12/41
f 9/10/11 11/12/13 30/12/41 29/10/42
f 7/8/8 9/10/11 29/10/42 28/8/30
f 23/26/28 1/28/1 25/28/43 36/26/34
f 1/1/1 3/4/4 26/4/36 25/1/43
f 41/10/10 42/12/12 54/12/12 53/10/10
f 35/24/44 36/26/45 48/26/45 47/24/44
f 25/1/46 26/4/47 38/4/47 37/1/46
f 32/17/48 33/20/49 45/20/49 44/17/48
f 29/10/33 30/12/50 42/12/50 41/10/33
f 36/26/45 25/28/46 37/28/46 48/26/45
f 26/4/47 27/6/51 39/6/51 38/4/47
f 33/20/49 34/22/52 46/22/52 45/20/49
f 30/12/50 31/14/53 43/14/53 42/12/50
f 27/6/51 28/8/32 40/8/32 39/6/51
f 34/22/52 35/24/44 47/24/44 46/22/52
f 31/14/53 32/17/48 44/17/48 43/14/53
f 53/10/54 54/12/54 66/12/54 65/10/54
f 48/26/27 37/28/29 49/28/29 60/26/27
f 38/4/3 39/6/5 51/6/5 50/4/3
f 45/20/19 46/22/21 58/22/21 57/20/19
f 42/12/12 43/14/14 55/14/14 54/12/12
f 39/6/5 40/8/7 52/8/7 51/6/5
f 46/22/23 47/24/24 59/24/24 58/22/23
f 43/14/55 44/17/18 56/17/18 55/14/55
f 40/8/9 41/10/10 53/10/10 52/8/9
f 47/24/24 48/26/27 60/26/27 59/24/24
f 37/1/2 38/4/3 50/4/3 49/1/2
f 44/17/18 45/20/19 57/20/19 56/17/18
f 68/17/56 69/20/5 81/20/5 80/17/56
f 60/26/54 49/28/54 61/28/54 72/26/54
f 50/4/54 51/6/54 63/6/54 62/4/54
f 57/20/54 58/22/54 70/22/54 69/20/54
f 54/12/54 55/14/54 67/14/54 66/12/54
f 51/6/54 52/8/54 64/8/54 63/6/54
f 58/22/54 59/24/54 71/24/54 70/22/54
f 55/14/54 56/17/54 68/17/54 67/14/54
f 52/8/54 53/10/54 65/10/54 64/8/54
f 59/24/54 60/26/54 72/26/54 71/24/54
f 49/1/54 50/4/54 62/4/54 61/1/54
f 56/17/54 57/20/54 69/20/54 68/17/54
f 73/29/54 74/30/54 75/31/54 76/32/54 77/33/54 78/34/54 79/35/54 80/36/54 81/37/54 82/38/54 83/39/54 84/40/54
f 65/10/57 66/12/27 78/12/27 77/10/57
f 72/26/12 61/28/58 73/28/58 84/26/12
f 62/4/59 63/6/19 75/6/19 74/4/59
f 69/20/5 70/22/60 82/22/60 81/20/5
f 66/12/27 67/14/61 79/14/61 78/12/27
f 63/6/19 64/8/62 76/8/62 75/6/19
f 70/22/60 71/24/9 83/24/9 82/22/60
f 67/14/61 68/17/2 80/17/2 79/14/61
f 64/8/62 65/10/23 77/10/23 76/8/62
f 71/24/63 72/26/12 84/26/12 83/24/63
f 61/1/58 62/4/55 74/4/55 73/1/58
f 96/25/63 95/23/10 107/23/10 108/25/63
f 109/13/26 12/11/26 90/11/26 91/13/26
f 12/11/26 10/9/26 89/9/26 90/11/26
f 10/9/26 8/7/26 88/7/26 89/9/26
f 2/27/26 24/25/26 96/25/26 86/27/26
f 4/3/26 2/2/26 86/2/26 85/3/26
f 8/7/26 6/5/26 87/5/26 88/7/26
f 24/25/26 22/23/26 95/23/26 96/25/26
f 6/5/26 4/3/26 85/3/26 87/5/26
f 22/23/26 20/21/26 94/21/26 95/23/26
f 20/21/26 18/19/26 93/19/26 94/21/26
f 18/19/26 112/18/26 92/18/26 93/19/26
f 85/3/18 86/2/58 98/2/58 97/3/18
f 93/19/56 92/18/3 104/18/3 105/19/56
f 90/11/57 89/9/24 101/9/24 102/11/57
f 86/27/58 96/25/14 108/25/14 98/27/58
f 87/5/59 85/3/18 97/3/18 99/5/59
f 94/21/60 93/19/7 105/19/7 106/21/60
f 91/13/61 90/11/29 102/11/29 103/13/61
f 88/7/62 87/5/21 99/5/21 100/7/62
f 95/23/10 94/21/60 106/21/60 107/23/10
f 92/18/3 91/13/61 103/13/61 104/18/3
f 89/9/24 88/7/62 100/7/62 101/9/24
f 117/53/55 118/16/55 110/14/15 109/13/55
f 118/16/55 120/15/55 111/17/17 110/14/15
f 119/54/55 117/53/55 109/13/55 112/18/18
f 120/15/55 119/54/55 112/18/18 111/17/17
f 122/16/55 121/53/55 123/54/55 124/15/55
f 117/53/64 119/54/64 123/54/64 121/53/64
f 16/55/65 14/56/65 113/57/65 116/58/65
f 13/59/55 14/56/55 16/55/55 15/60/55
f 14/56/9 13/59/9 118/16/9 117/53/9
f 15/60/23 16/55/23 119/54/23 120/15/23
f 114/61/9 113/57/9 121/53/9 122/16/9
f 116/58/23 115/62/23 124/15/23 123/54/23
f 13/59/9 114/61/9 122/16/9 118/16/9
f 115/62/23 15/60/23 120/15/23 124/15/23
f 16/55/23 116/58/23 123/54/23 119/54/23
f 113/57/9 14/56/9 117/53/9 121/53/9
f 114/61/2 115/62/2 116/58/2 113/57/2
f 13/59/66 15/60/66 115/62/66 114/61/66
usemtl Material.004
f 97/41/26 98/42/26 108/43/26 107/44/26 106/45/26 105/46/26 104/47/26 103/48/26 102/49/26 101/50/26 100/51/26 99/52/26
