# Blender 4.2.2 LTS
# www.blender.org
mtllib cookie.mtl
o Cube
v -0.195216 -0.032347 0.195216
v -0.202125 0.028021 0.209413
v -0.215387 -0.033141 -0.187973
v -0.195413 0.020785 -0.185936
v 0.195216 -0.032347 0.195216
v 0.194207 0.016218 0.208880
v 0.197334 -0.051410 -0.213309
v 0.178547 0.033553 -0.207577
v -0.269845 -0.032347 -0.097608
v -0.293783 -0.031438 0.008632
v -0.269845 -0.032347 0.097608
v -0.272478 0.015217 0.113648
v -0.272478 0.015217 0.016040
v -0.272478 0.015217 -0.081568
v 0.281528 -0.035328 0.125944
v 0.268836 -0.048476 0.013664
v 0.269845 -0.032347 -0.097608
v 0.269648 0.020785 -0.088328
v 0.268836 0.016218 0.013664
v 0.268836 0.016218 0.111272
v 0.097608 -0.032347 -0.262244
v 0.000000 -0.032347 -0.262244
v -0.097608 -0.032347 -0.262244
v -0.097805 0.020785 -0.252964
v -0.000197 0.020785 -0.252964
v 0.097411 0.020785 -0.252964
v -0.104517 -0.036673 0.276441
v 0.000000 -0.032347 0.262244
v 0.094957 -0.028873 0.289358
v 0.094957 0.035821 0.289358
v -0.004277 0.045151 0.260401
v -0.104517 0.028021 0.276441
v -0.135120 0.020785 -0.121842
v -0.010939 0.019032 -0.170726
v 0.118253 0.033553 -0.143483
v -0.163462 0.053870 0.015389
v -0.025469 0.013375 0.040176
v 0.112086 0.030505 0.024136
v -0.141832 0.028021 0.145319
v -0.006909 0.028021 0.145319
v 0.133913 0.016218 0.144786
v 0.134923 -0.032347 -0.131122
v -0.000000 -0.032347 -0.131122
v -0.134923 -0.032347 -0.131122
v 0.134923 -0.032347 -0.000000
v -0.000000 -0.032347 -0.000000
v -0.134923 -0.032347 -0.000000
v 0.134923 -0.032347 0.131122
v -0.000000 -0.032347 0.131122
v -0.134923 -0.032347 0.131122
vn -0.8083 0.2343 -0.5402
vn 0.4609 0.1583 -0.8732
vn 0.7168 0.1050 0.6894
vn -0.6157 -0.1224 0.7784
vn -0.0190 -0.9997 0.0178
vn -0.0398 0.9985 -0.0375
vn -0.0166 0.9997 0.0156
vn -0.2001 0.9666 -0.1603
vn -0.2243 0.9657 0.1310
vn -0.1263 -0.9832 0.1321
vn -0.0481 -0.9966 -0.0665
vn -0.0696 -0.9959 0.0574
vn 0.8062 0.1724 -0.5660
vn 1.0000 0.0010 0.0086
vn 0.9928 0.1000 -0.0663
vn -0.7703 -0.2342 0.5931
vn -0.9786 0.1625 0.1263
vn -0.9686 0.2205 -0.1147
vn -0.0028 -1.0000 -0.0038
vn -0.0000 -1.0000 -0.0000
vn -0.0026 -1.0000 0.0036
vn 0.0057 -1.0000 0.0059
vn 0.0578 0.9966 0.0595
vn -0.0190 0.9998 0.0018
vn 0.1447 0.9892 0.0224
vn 0.0831 0.9961 0.0303
vn -0.1185 0.9928 0.0164
vn 0.1535 0.9864 -0.0588
vn -0.0000 1.0000 -0.0000
vn -0.0573 0.9969 -0.0543
vn 0.0102 0.9999 0.0105
vn 0.0572 0.9969 -0.0538
vn 0.1017 0.9869 -0.1254
vn -0.0764 0.9955 -0.0569
vn -0.0130 -0.9998 -0.0122
vn 0.0170 -0.9997 -0.0175
vn 0.0135 -0.9998 0.0139
vn 0.6506 -0.0852 0.7546
vn -0.2773 0.0041 0.9608
vn 0.1443 0.0172 0.9894
vn -0.5394 0.1864 -0.8212
vn -0.0000 0.1721 -0.9851
vt 0.375000 0.187500
vt 0.625000 0.187500
vt 0.625000 0.250000
vt 0.375000 0.250000
vt 0.375000 0.437500
vt 0.625000 0.437500
vt 0.625000 0.500000
vt 0.375000 0.500000
vt 0.375000 0.687500
vt 0.625000 0.687500
vt 0.625000 0.750000
vt 0.375000 0.750000
vt 0.375000 0.937500
vt 0.625000 0.937500
vt 0.625000 1.000000
vt 0.375000 1.000000
vt 0.312500 0.687500
vt 0.312500 0.750000
vt 0.812500 0.687500
vt 0.875000 0.687500
vt 0.875000 0.750000
vt 0.812500 0.750000
vt 0.812500 0.500000
vt 0.875000 0.500000
vt 0.875000 0.562500
vt 0.812500 0.562500
vt 0.875000 0.625000
vt 0.812500 0.625000
vt 0.312500 0.500000
vt 0.375000 0.562500
vt 0.312500 0.562500
vt 0.375000 0.625000
vt 0.312500 0.625000
vt 0.625000 0.562500
vt 0.625000 0.625000
vt 0.375000 0.000000
vt 0.625000 0.000000
vt 0.625000 0.062500
vt 0.375000 0.062500
vt 0.625000 0.125000
vt 0.375000 0.125000
vt 0.125000 0.625000
vt 0.187500 0.625000
vt 0.187500 0.687500
vt 0.125000 0.687500
vt 0.250000 0.625000
vt 0.250000 0.687500
vt 0.125000 0.562500
vt 0.187500 0.562500
vt 0.250000 0.562500
vt 0.125000 0.500000
vt 0.187500 0.500000
vt 0.250000 0.500000
vt 0.687500 0.625000
vt 0.687500 0.687500
vt 0.750000 0.625000
vt 0.750000 0.687500
vt 0.687500 0.562500
vt 0.750000 0.562500
vt 0.687500 0.500000
vt 0.750000 0.500000
vt 0.687500 0.750000
vt 0.750000 0.750000
vt 0.187500 0.750000
vt 0.125000 0.750000
vt 0.250000 0.750000
vt 0.625000 0.812500
vt 0.375000 0.812500
vt 0.625000 0.875000
vt 0.375000 0.875000
vt 0.625000 0.312500
vt 0.375000 0.312500
vt 0.625000 0.375000
vt 0.375000 0.375000
s 0
usemtl Material.002
f 9/1/1 14/2/1 4/3/1 3/4/1
f 21/5/2 26/6/2 8/7/2 7/8/2
f 15/9/3 20/10/3 6/11/3 5/12/3
f 27/13/4 32/14/4 2/15/4 1/16/4
f 48/17/5 15/9/5 5/12/5 29/18/5
f 39/19/6 12/20/6 2/21/6 32/22/6
f 24/23/7 4/24/7 14/25/7 33/26/7
f 33/26/8 14/25/8 13/27/8 36/28/8
f 36/28/9 13/27/9 12/20/9 39/19/9
f 21/29/10 7/8/10 17/30/10 42/31/10
f 42/31/11 17/30/11 16/32/11 45/33/11
f 45/33/12 16/32/12 15/9/12 48/17/12
f 7/8/13 8/7/13 18/34/13 17/30/13
f 17/30/14 18/34/14 19/35/14 16/32/14
f 16/32/15 19/35/15 20/10/15 15/9/15
f 1/36/16 2/37/16 12/38/16 11/39/16
f 11/39/17 12/38/17 13/40/17 10/41/17
f 10/41/18 13/40/18 14/2/18 9/1/18
f 10/42/19 47/43/19 50/44/19 11/45/19
f 47/43/20 46/46/20 49/47/20 50/44/20
f 46/46/20 45/33/20 48/17/20 49/47/20
f 9/48/21 44/49/21 47/43/21 10/42/21
f 44/49/20 43/50/20 46/46/20 47/43/20
f 43/50/20 42/31/20 45/33/20 46/46/20
f 3/51/22 23/52/22 44/49/22 9/48/22
f 23/52/20 22/53/20 43/50/20 44/49/20
f 22/53/20 21/29/20 42/31/20 43/50/20
f 19/35/23 38/54/23 41/55/23 20/10/23
f 38/54/24 37/56/24 40/57/24 41/55/24
f 37/56/25 36/28/25 39/19/25 40/57/25
f 18/34/26 35/58/26 38/54/26 19/35/26
f 35/58/27 34/59/27 37/56/27 38/54/27
f 34/59/28 33/26/28 36/28/28 37/56/28
f 8/7/29 26/60/29 35/58/29 18/34/29
f 26/60/30 25/61/30 34/59/30 35/58/30
f 25/61/31 24/23/31 33/26/31 34/59/31
f 20/10/32 41/55/32 30/62/32 6/11/32
f 41/55/33 40/57/33 31/63/33 30/62/33
f 40/57/34 39/19/34 32/22/34 31/63/34
f 11/45/35 50/44/35 27/64/35 1/65/35
f 50/44/36 49/47/36 28/66/36 27/64/36
f 49/47/37 48/17/37 29/18/37 28/66/37
f 5/12/38 6/11/38 30/67/38 29/68/38
f 29/68/39 30/67/39 31/69/39 28/70/39
f 28/70/40 31/69/40 32/14/40 27/13/40
f 3/4/41 4/3/41 24/71/41 23/72/41
f 23/72/42 24/71/42 25/73/42 22/74/42
f 22/74/42 25/73/42 26/6/42 21/5/42
o Cube.001
v 0.051691 -0.007688 -0.091859
v 0.043373 0.041278 -0.086101
v 0.055027 -0.001303 -0.141337
v 0.046710 0.047663 -0.135579
v 0.100881 0.000158 -0.087530
v 0.092564 0.049124 -0.081771
v 0.104217 0.006543 -0.137008
v 0.095900 0.055509 -0.131250
v -0.134743 0.003952 0.059749
v -0.121244 0.068273 0.048489
v -0.142532 -0.005878 -0.005741
v -0.129033 0.058443 -0.017001
v -0.069910 -0.010622 0.054225
v -0.056411 0.053699 0.042965
v -0.077699 -0.020452 -0.011265
v -0.064200 0.043869 -0.022525
v 0.030079 -0.000033 0.149280
v 0.065390 0.050251 0.152851
v 0.017869 0.012727 0.090321
v 0.053180 0.063011 0.093891
v 0.078988 -0.033151 0.131985
v 0.114299 0.017133 0.135555
v 0.066779 -0.020391 0.073025
v 0.102090 0.029893 0.076596
vn -0.9838 -0.1569 -0.0866
vn 0.0667 0.1277 -0.9896
vn 0.9838 0.1569 0.0866
vn -0.0667 -0.1277 0.9896
vn 0.1663 -0.9793 -0.1152
vn -0.1663 0.9793 0.1152
vn -0.9723 0.2186 0.0828
vn -0.1168 -0.1474 -0.9822
vn 0.9723 -0.2186 -0.0828
vn 0.1168 0.1474 0.9822
vn -0.2024 -0.9646 0.1689
vn 0.2024 0.9646 -0.1689
vn -0.7947 0.5381 0.2810
vn -0.1984 0.2073 -0.9579
vn 0.7947 -0.5381 -0.2810
vn 0.1984 -0.2073 0.9579
vn -0.5737 -0.8170 -0.0580
vn 0.5737 0.8170 0.0580
vt 0.375000 0.000000
vt 0.625000 0.000000
vt 0.625000 0.250000
vt 0.375000 0.250000
vt 0.625000 0.500000
vt 0.375000 0.500000
vt 0.625000 0.750000
vt 0.375000 0.750000
vt 0.625000 1.000000
vt 0.375000 1.000000
vt 0.125000 0.500000
vt 0.125000 0.750000
vt 0.875000 0.500000
vt 0.875000 0.750000
s 0
usemtl Material.001
f 51/75/43 52/76/43 54/77/43 53/78/43
f 53/78/44 54/77/44 58/79/44 57/80/44
f 57/80/45 58/79/45 56/81/45 55/82/45
f 55/82/46 56/81/46 52/83/46 51/84/46
f 53/85/47 57/80/47 55/82/47 51/86/47
f 58/79/48 54/87/48 52/88/48 56/81/48
f 59/75/49 60/76/49 62/77/49 61/78/49
f 61/78/50 62/77/50 66/79/50 65/80/50
f 65/80/51 66/79/51 64/81/51 63/82/51
f 63/82/52 64/81/52 60/83/52 59/84/52
f 61/85/53 65/80/53 63/82/53 59/86/53
f 66/79/54 62/87/54 60/88/54 64/81/54
f 67/75/55 68/76/55 70/77/55 69/78/55
f 69/78/56 70/77/56 74/79/56 73/80/56
f 73/80/57 74/79/57 72/81/57 71/82/57
f 71/82/58 72/81/58 68/83/58 67/84/58
f 69/85/59 73/80/59 71/82/59 67/86/59
f 74/79/60 70/87/60 68/88/60 72/81/60
