# Blender 4.2.2 LTS
# www.blender.org
mtllib croiss.mtl
o Cube
v 0.237856 0.352115 -0.199585
v 0.237856 0.017038 -0.199585
v -0.237856 0.017038 -0.199585
v -0.237856 0.352115 -0.199585
v -0.254968 0.004985 0.000000
v 0.254968 0.364168 0.000000
v -0.254968 0.364168 0.000000
v 0.254968 0.004985 0.000000
v 0.237856 0.017038 -0.199585
v -0.237856 0.017038 -0.199585
v 0.237856 0.352115 -0.199585
v -0.237856 0.352115 -0.199585
v 0.158707 0.025998 -0.241432
v -0.166598 0.025998 -0.276062
v 0.158707 0.300612 -0.241432
v -0.166598 0.300612 -0.276062
v 0.167749 0.025998 -0.326375
v -0.157555 0.025998 -0.361006
v 0.167749 0.300612 -0.326375
v -0.157555 0.300612 -0.361006
v 0.172716 0.026627 -0.384323
v -0.112594 0.026627 -0.437787
v 0.172716 0.270295 -0.384323
v -0.112594 0.270295 -0.437787
v 0.190453 0.026627 -0.478975
v -0.094857 0.026627 -0.532439
v 0.190453 0.270295 -0.478975
v -0.094857 0.270295 -0.532439
v 0.207222 0.035425 -0.496816
v -0.020107 0.035425 -0.568928
v 0.207222 0.200409 -0.496816
v -0.020107 0.200409 -0.568928
v 0.305857 0.021722 -0.709448
v 0.190622 0.021722 -0.762517
v 0.305857 0.143140 -0.709448
v 0.190622 0.143140 -0.762517
v 0.237856 0.352115 0.199585
v 0.237856 0.017038 0.199585
v -0.237856 0.017038 0.199585
v -0.237856 0.352115 0.199585
v 0.237856 0.017038 0.199585
v -0.237856 0.017038 0.199585
v 0.237856 0.352115 0.199585
v -0.237856 0.352115 0.199585
v 0.158707 0.025998 0.241432
v -0.166598 0.025998 0.276062
v 0.158707 0.300612 0.241432
v -0.166598 0.300612 0.276062
v 0.167749 0.025998 0.326375
v -0.157555 0.025998 0.361006
v 0.167749 0.300612 0.326375
v -0.157555 0.300612 0.361006
v 0.172716 0.026627 0.384323
v -0.112594 0.026627 0.437787
v 0.172716 0.270295 0.384323
v -0.112594 0.270295 0.437787
v 0.190453 0.026627 0.478975
v -0.094857 0.026627 0.532439
v 0.190453 0.270295 0.478975
v -0.094857 0.270295 0.532439
v 0.207222 0.035425 0.496816
v -0.020107 0.035425 0.568928
v 0.207222 0.200409 0.496816
v -0.020107 0.200409 0.568928
v 0.305857 0.021722 0.709448
v 0.190622 0.021722 0.762517
v 0.305857 0.143140 0.709448
v 0.190622 0.143140 0.762517
vn -0.9963 -0.0000 -0.0854
vn -0.0000 1.0000 -0.0000
vn 0.9963 -0.0000 -0.0854
vn -0.0000 -0.9982 -0.0603
vn -0.0000 0.9982 -0.0603
vn -0.7316 -0.0000 -0.6817
vn 0.4674 -0.0000 -0.8840
vn 0.0284 0.7530 -0.6574
vn 0.0065 -0.9886 -0.1502
vn 0.0566 0.9181 -0.3922
vn -0.0000 -1.0000 -0.0000
vn -0.9944 -0.0000 -0.1059
vn 0.9944 -0.0000 0.1059
vn 0.0013 -1.0000 -0.0089
vn -0.8629 -0.0000 -0.5053
vn 0.9963 -0.0000 0.0854
vn -0.4387 -0.0000 -0.8987
vn -0.9829 -0.0000 -0.1842
vn 0.9829 -0.0000 0.1842
vn 0.0785 0.9735 -0.2147
vn 0.7286 -0.0000 0.6849
vn 0.2099 0.4706 -0.8570
vn 0.0547 -0.9733 -0.2231
vn 0.4183 -0.0000 -0.9083
vn -0.0193 -0.9984 0.0527
vn -0.6765 -0.0000 -0.7364
vn 0.9072 -0.0000 0.4208
vn -0.9963 -0.0000 0.0854
vn -0.0000 -0.9982 0.0603
vn -0.0000 0.9982 0.0603
vn -0.7316 -0.0000 0.6817
vn 0.4674 -0.0000 0.8840
vn 0.0284 0.7530 0.6574
vn 0.0065 -0.9886 0.1502
vn 0.0566 0.9181 0.3922
vn -0.9944 -0.0000 0.1059
vn 0.9944 -0.0000 -0.1059
vn 0.0013 -1.0000 0.0089
vn -0.8629 -0.0000 0.5053
vn -0.4387 -0.0000 0.8987
vn -0.9829 -0.0000 0.1842
vn 0.9829 -0.0000 -0.1842
vn 0.0785 0.9735 0.2147
vn 0.7286 -0.0000 -0.6849
vn 0.2099 0.4706 0.8570
vn 0.0547 -0.9733 0.2231
vn 0.4183 -0.0000 0.9083
vn -0.0193 -0.9984 -0.0527
vn -0.6765 -0.0000 0.7364
vn 0.9072 -0.0000 -0.4208
vt 0.307426 0.055549
vt 0.733312 0.055549
vt 0.733312 0.268492
vt 0.307426 0.268492
vt 0.307426 0.694378
vt -0.118460 0.694378
vt 0.733312 0.694378
vt 0.733312 0.907322
vt 0.307426 0.907322
vt -0.118460 0.907322
vt 0.732671 0.695383
vt 1.158551 0.693377
vt 1.159840 0.906317
vt 0.733960 0.908323
s 0
usemtl Material
f 5/1/1 7/2/1 4/3/1 3/4/1
f 2/5/2 3/6/2 10/6/2 9/5/2
f 2/5/3 1/7/3 6/8/3 8/9/3
f 3/6/4 2/5/4 8/9/4 5/10/4
f 1/11/5 4/12/5 7/13/5 6/14/5
f 10/4/6 12/3/6 16/3/6 14/4/6
f 3/4/2 4/3/2 12/3/2 10/4/2
f 4/12/2 1/11/2 11/11/2 12/12/2
f 1/7/2 2/5/2 9/5/2 11/7/2
f 16/12/2 15/11/2 19/11/2 20/12/2
f 11/7/7 9/5/7 13/5/7 15/7/7
f 12/12/8 11/11/8 15/11/8 16/12/8
f 9/5/9 10/6/9 14/6/9 13/5/9
f 20/12/10 19/11/10 23/11/10 24/12/10
f 13/5/11 14/6/11 18/6/11 17/5/11
f 14/4/12 16/3/12 20/3/12 18/4/12
f 15/7/13 13/5/13 17/5/13 19/7/13
f 24/12/2 23/11/2 27/11/2 28/12/2
f 17/5/14 18/6/14 22/6/14 21/5/14
f 18/4/15 20/3/15 24/3/15 22/4/15
f 19/7/16 17/5/16 21/5/16 23/7/16
f 26/4/17 28/3/17 32/3/17 30/4/17
f 21/5/11 22/6/11 26/6/11 25/5/11
f 22/4/18 24/3/18 28/3/18 26/4/18
f 23/7/19 21/5/19 25/5/19 27/7/19
f 32/12/20 31/11/20 35/11/20 36/12/20
f 27/7/21 25/5/21 29/5/21 31/7/21
f 28/12/22 27/11/22 31/11/22 32/12/22
f 25/5/23 26/6/23 30/6/23 29/5/23
f 34/4/24 36/3/24 35/7/24 33/5/24
f 29/5/25 30/6/25 34/6/25 33/5/25
f 30/4/26 32/3/26 36/3/26 34/4/26
f 31/7/27 29/5/27 33/5/27 35/7/27
f 5/1/28 39/4/28 40/3/28 7/2/28
f 38/5/2 41/5/2 42/6/2 39/6/2
f 38/5/16 8/9/16 6/8/16 37/7/16
f 39/6/29 5/10/29 8/9/29 38/5/29
f 37/11/30 6/14/30 7/13/30 40/12/30
f 42/4/31 46/4/31 48/3/31 44/3/31
f 39/4/2 42/4/2 44/3/2 40/3/2
f 40/12/2 44/12/2 43/11/2 37/11/2
f 37/7/2 43/7/2 41/5/2 38/5/2
f 48/12/2 52/12/2 51/11/2 47/11/2
f 43/7/32 47/7/32 45/5/32 41/5/32
f 44/12/33 48/12/33 47/11/33 43/11/33
f 41/5/34 45/5/34 46/6/34 42/6/34
f 52/12/35 56/12/35 55/11/35 51/11/35
f 45/5/11 49/5/11 50/6/11 46/6/11
f 46/4/36 50/4/36 52/3/36 48/3/36
f 47/7/37 51/7/37 49/5/37 45/5/37
f 56/12/2 60/12/2 59/11/2 55/11/2
f 49/5/38 53/5/38 54/6/38 50/6/38
f 50/4/39 54/4/39 56/3/39 52/3/39
f 51/7/3 55/7/3 53/5/3 49/5/3
f 58/4/40 62/4/40 64/3/40 60/3/40
f 53/5/11 57/5/11 58/6/11 54/6/11
f 54/4/41 58/4/41 60/3/41 56/3/41
f 55/7/42 59/7/42 57/5/42 53/5/42
f 64/12/43 68/12/43 67/11/43 63/11/43
f 59/7/44 63/7/44 61/5/44 57/5/44
f 60/12/45 64/12/45 63/11/45 59/11/45
f 57/5/46 61/5/46 62/6/46 58/6/46
f 66/4/47 65/5/47 67/7/47 68/3/47
f 61/5/48 65/5/48 66/6/48 62/6/48
f 62/4/49 66/4/49 68/3/49 64/3/49
f 63/7/50 67/7/50 65/5/50 61/5/50
