# Blender 4.2.2 LTS
# www.blender.org
mtllib cupcake.mtl
o Cube
v -0.232591 -0.021741 0.199791
v -0.214824 0.036515 0.193574
v -0.206957 -0.010246 -0.209580
v -0.187321 0.042199 -0.207853
v 0.169084 -0.031660 0.225870
v 0.194207 0.016218 0.208880
v 0.184090 -0.019411 -0.196561
v 0.151166 0.088262 -0.178019
v -0.263909 -0.010246 -0.120387
v -0.284448 -0.010246 -0.013294
v -0.277201 -0.031660 0.100124
v -0.272478 0.015217 0.113648
v -0.264386 0.036630 -0.005877
v -0.264386 0.036630 -0.103485
v 0.256924 -0.031660 0.115795
v 0.277569 -0.031660 0.013870
v 0.257419 -0.019411 -0.089040
v 0.267571 0.033034 -0.083698
v 0.237670 0.122265 0.075025
v 0.240350 0.069169 0.138981
v 0.093969 -0.019411 -0.253560
v -0.001752 -0.019411 -0.272790
v -0.097783 -0.031660 -0.262756
v -0.097805 0.020785 -0.252964
v -0.002274 0.033034 -0.248334
v 0.070030 0.075495 -0.223407
v -0.126873 -0.015105 0.278191
v -0.023312 -0.020039 0.302321
v 0.090193 -0.031660 0.276033
v 0.090997 0.101097 0.274834
v -0.029715 0.068765 0.281745
v -0.124135 0.106354 0.272500
v -0.135120 0.161196 -0.121842
v -0.021084 0.172752 -0.138527
v 0.118253 0.173964 -0.143483
v -0.163462 0.124260 0.015389
v -0.078793 0.185036 0.058532
v 0.068906 0.188858 0.010294
v -0.141832 0.168432 0.145319
v -0.017054 0.181740 0.177518
v 0.133913 0.156630 0.144786
v 0.134923 -0.032347 -0.131122
v -0.000000 -0.032347 -0.131122
v -0.134923 -0.032347 -0.131122
v 0.134923 -0.032347 -0.000000
v -0.000000 -0.032347 -0.000000
v -0.134923 -0.032347 -0.000000
v 0.134923 -0.032347 0.131122
v -0.000000 -0.032347 0.131122
v -0.134923 -0.032347 0.131122
v -0.207314 -0.050042 0.194928
v -0.207769 -0.050042 -0.170446
v 0.150782 -0.050042 0.215548
v 0.166728 -0.050042 -0.183073
v -0.260928 -0.050042 -0.087193
v -0.280099 -0.050042 0.012768
v -0.265783 -0.050042 0.098175
v 0.232773 -0.050042 0.112803
v 0.252043 -0.050042 0.017665
v 0.235174 -0.050042 -0.082712
v 0.082609 -0.050042 -0.236276
v -0.006738 -0.050042 -0.254226
v -0.098312 -0.050042 -0.240539
v -0.104467 -0.050042 0.262406
v -0.006381 -0.050042 0.278270
v 0.077145 -0.050042 0.262370
v -0.139206 -0.232067 0.130320
v -0.139500 -0.232067 -0.105634
v 0.092048 -0.232067 0.143636
v 0.102346 -0.232067 -0.113788
v -0.173829 -0.232067 -0.051870
v -0.186209 -0.232067 0.012683
v -0.176964 -0.232067 0.067838
v 0.144996 -0.232067 0.077285
v 0.157441 -0.232067 0.015846
v 0.146547 -0.232067 -0.048977
v 0.048022 -0.232067 -0.148146
v -0.009676 -0.232067 -0.159738
v -0.068814 -0.232067 -0.150899
v -0.072789 -0.232067 0.173897
v -0.009446 -0.232067 0.184141
v 0.044494 -0.232067 0.173873
vn -0.7982 0.2562 -0.5453
vn 0.4665 0.3284 -0.8213
vn 0.8100 -0.0708 0.5822
vn -0.6493 0.1238 0.7504
vn 0.0052 -1.0000 0.0054
vn -0.7440 0.5503 0.3790
vn -0.4769 0.6426 -0.5996
vn -0.6776 0.7346 0.0338
vn -0.7179 0.6957 -0.0245
vn 0.1119 -0.9875 -0.1112
vn 0.0633 -0.9963 -0.0576
vn 0.0052 -1.0000 0.0005
vn 0.7406 0.2010 -0.6412
vn 0.9895 0.1444 -0.0056
vn 0.9738 0.1636 0.1578
vn -0.8699 0.1535 0.4687
vn -0.9682 0.2466 0.0418
vn -0.9689 0.2276 -0.0972
vn -0.0647 -0.9943 -0.0851
vn -0.0000 -1.0000 -0.0000
vn -0.1566 -0.9876 -0.0135
vn -0.2021 -0.9753 -0.0892
vn 0.0510 -0.9978 -0.0431
vn 0.0082 -0.9951 -0.0988
vn 0.4390 0.8700 0.2243
vn 0.0954 0.9913 0.0912
vn -0.3173 0.9471 -0.0493
vn 0.5757 0.8083 -0.1234
vn -0.0337 0.9956 -0.0874
vn -0.3399 0.9403 -0.0181
vn 0.5719 0.4860 -0.6609
vn -0.0559 0.6263 -0.7776
vn -0.1160 0.6342 -0.7644
vn 0.6299 0.5297 0.5680
vn 0.0652 0.8027 0.5928
vn -0.0258 0.7970 0.6035
vn -0.0269 -0.9930 0.1151
vn -0.0298 -0.9954 0.0910
vn -0.0434 -0.9986 0.0317
vn 0.5400 0.0072 0.8416
vn 0.1309 0.1002 0.9863
vn -0.1398 0.1203 0.9828
vn -0.4061 0.1745 -0.8970
vn -0.0663 0.3094 -0.9486
vn 0.1492 0.3653 -0.9189
vn 0.3779 -0.7099 0.5943
vn -0.5184 0.7484 -0.4137
vn -0.4190 -0.6542 -0.6296
vn 0.5918 -0.7971 0.1199
vn 0.7502 0.4558 0.4790
vn 0.4591 0.5690 -0.6823
vn 0.6884 -0.7056 -0.1679
vn 0.9570 0.2248 0.1835
vn -0.1711 -0.5884 0.7903
vn -0.4430 0.5595 0.7005
vn 0.9700 0.2295 -0.0805
vn 0.1329 -0.6026 0.7869
vn 0.6716 -0.5824 -0.4580
vn 0.6936 0.6028 -0.3944
vn 0.1669 -0.5308 -0.8309
vn -0.0560 -0.6349 -0.7706
vn -0.1316 -0.4550 -0.8807
vn 0.8761 0.4518 0.1680
vn 0.4903 0.4487 -0.7472
vn 0.8790 0.4535 -0.1473
vn -0.1424 -0.4528 0.8802
vn -0.6995 0.4462 -0.5582
vn 0.7643 0.4499 -0.4619
vn 0.1665 -0.4551 0.8747
vn 0.8726 -0.4553 0.1767
vn -0.4819 -0.4487 -0.7526
vn 0.8782 -0.4549 -0.1476
vn 0.7370 -0.4520 -0.5026
vn -0.4760 0.4549 0.7527
vn 0.4787 -0.4519 0.7528
vn 0.1753 -0.4558 -0.8726
vn 0.7515 0.4527 0.4799
vn -0.0000 1.0000 -0.0000
vt 0.375000 0.187500
vt 0.625000 0.187500
vt 0.625000 0.250000
vt 0.375000 0.250000
vt 0.375000 0.437500
vt 0.625000 0.437500
vt 0.625000 0.500000
vt 0.375000 0.500000
vt 0.375000 0.687500
vt 0.625000 0.687500
vt 0.625000 0.750000
vt 0.375000 0.750000
vt 0.375000 0.937500
vt 0.625000 0.937500
vt 0.625000 1.000000
vt 0.375000 1.000000
vt 0.312500 0.687500
vt 0.312500 0.750000
vt 0.812500 0.687500
vt 0.875000 0.687500
vt 0.875000 0.750000
vt 0.812500 0.750000
vt 0.812500 0.500000
vt 0.875000 0.500000
vt 0.875000 0.562500
vt 0.812500 0.562500
vt 0.875000 0.625000
vt 0.812500 0.625000
vt 0.312500 0.500000
vt 0.375000 0.562500
vt 0.312500 0.562500
vt 0.375000 0.625000
vt 0.312500 0.625000
vt 0.625000 0.562500
vt 0.625000 0.625000
vt 0.375000 0.000000
vt 0.625000 0.000000
vt 0.625000 0.062500
vt 0.375000 0.062500
vt 0.625000 0.125000
vt 0.375000 0.125000
vt 0.125000 0.625000
vt 0.187500 0.625000
vt 0.187500 0.687500
vt 0.125000 0.687500
vt 0.250000 0.625000
vt 0.250000 0.687500
vt 0.125000 0.562500
vt 0.187500 0.562500
vt 0.250000 0.562500
vt 0.125000 0.500000
vt 0.187500 0.500000
vt 0.250000 0.500000
vt 0.687500 0.625000
vt 0.687500 0.687500
vt 0.750000 0.625000
vt 0.750000 0.687500
vt 0.687500 0.562500
vt 0.750000 0.562500
vt 0.687500 0.500000
vt 0.750000 0.500000
vt 0.687500 0.750000
vt 0.750000 0.750000
vt 0.187500 0.750000
vt 0.125000 0.750000
vt 0.250000 0.750000
vt 0.625000 0.812500
vt 0.375000 0.812500
vt 0.625000 0.875000
vt 0.375000 0.875000
vt 0.625000 0.312500
vt 0.375000 0.312500
vt 0.625000 0.375000
vt 0.375000 0.375000
s 0
usemtl Material.002
f 9/1/1 14/2/1 4/3/1 3/4/1
f 21/5/2 26/6/2 8/7/2 7/8/2
f 15/9/3 20/10/3 6/11/3 5/12/3
f 27/13/4 32/14/4 2/15/4 1/16/4
f 48/17/5 15/9/5 5/12/5 29/18/5
f 39/19/6 12/20/6 2/21/6 32/22/6
f 24/23/7 4/24/7 14/25/7 33/26/7
f 33/26/8 14/25/8 13/27/8 36/28/8
f 36/28/9 13/27/9 12/20/9 39/19/9
f 21/29/10 7/8/10 17/30/10 42/31/10
f 42/31/11 17/30/11 16/32/11 45/33/11
f 45/33/12 16/32/12 15/9/12 48/17/12
f 7/8/13 8/7/13 18/34/13 17/30/13
f 17/30/14 18/34/14 19/35/14 16/32/14
f 16/32/15 19/35/15 20/10/15 15/9/15
f 1/36/16 2/37/16 12/38/16 11/39/16
f 11/39/17 12/38/17 13/40/17 10/41/17
f 10/41/18 13/40/18 14/2/18 9/1/18
f 10/42/19 47/43/19 50/44/19 11/45/19
f 47/43/20 46/46/20 49/47/20 50/44/20
f 46/46/20 45/33/20 48/17/20 49/47/20
f 9/48/21 44/49/21 47/43/21 10/42/21
f 44/49/20 43/50/20 46/46/20 47/43/20
f 43/50/20 42/31/20 45/33/20 46/46/20
f 3/51/22 23/52/22 44/49/22 9/48/22
f 23/52/23 22/53/23 43/50/23 44/49/23
f 22/53/24 21/29/24 42/31/24 43/50/24
f 19/35/25 38/54/25 41/55/25 20/10/25
f 38/54/26 37/56/26 40/57/26 41/55/26
f 37/56/27 36/28/27 39/19/27 40/57/27
f 18/34/28 35/58/28 38/54/28 19/35/28
f 35/58/29 34/59/29 37/56/29 38/54/29
f 34/59/30 33/26/30 36/28/30 37/56/30
f 8/7/31 26/60/31 35/58/31 18/34/31
f 26/60/32 25/61/32 34/59/32 35/58/32
f 25/61/33 24/23/33 33/26/33 34/59/33
f 20/10/34 41/55/34 30/62/34 6/11/34
f 41/55/35 40/57/35 31/63/35 30/62/35
f 40/57/36 39/19/36 32/22/36 31/63/36
f 11/45/37 50/44/37 27/64/37 1/65/37
f 50/44/38 49/47/38 28/66/38 27/64/38
f 49/47/39 48/17/39 29/18/39 28/66/39
f 5/12/40 6/11/40 30/67/40 29/68/40
f 29/68/41 30/67/41 31/69/41 28/70/41
f 28/70/42 31/69/42 32/14/42 27/13/42
f 3/4/43 4/3/43 24/71/43 23/72/43
f 23/72/44 24/71/44 25/73/44 22/74/44
f 22/74/45 25/73/45 26/6/45 21/5/45
f 5/12/46 29/18/46 66/18/46 53/12/46
f 5/12/47 15/9/47 58/9/47 53/12/47
f 3/51/48 23/52/48 63/52/48 52/51/48
f 16/32/49 15/9/49 58/9/49 59/32/49
f 3/4/50 9/1/50 55/1/50 52/4/50
f 1/16/51 27/13/51 64/13/51 51/16/51
f 17/30/52 16/32/52 59/32/52 60/30/52
f 9/1/53 10/41/53 56/41/53 55/1/53
f 28/66/54 27/64/54 64/64/54 65/66/54
f 7/8/55 21/5/55 61/5/55 54/8/55
f 10/41/56 11/39/56 57/39/56 56/41/56
f 29/18/57 28/66/57 65/66/57 66/18/57
f 7/8/58 17/30/58 60/30/58 54/8/58
f 11/39/59 1/36/59 51/36/59 57/39/59
f 22/53/60 21/29/60 61/29/60 62/53/60
f 23/52/61 22/53/61 62/53/61 63/52/61
usemtl Material
f 63/52/62 62/53/62 78/53/62 79/52/62
f 55/1/63 56/41/63 72/41/63 71/1/63
f 51/16/64 64/13/64 80/13/64 67/16/64
f 56/41/65 57/39/65 73/39/65 72/41/65
f 65/66/66 64/64/66 80/64/66 81/66/66
f 53/12/67 58/9/67 74/9/67 69/12/67
f 57/39/68 51/36/68 67/36/68 73/39/68
f 66/18/69 65/66/69 81/66/69 82/18/69
f 59/32/70 58/9/70 74/9/70 75/32/70
f 52/51/71 63/52/71 79/52/71 68/51/71
f 60/30/72 59/32/72 75/32/72 76/30/72
f 54/8/73 60/30/73 76/30/73 70/8/73
f 54/8/74 61/5/74 77/5/74 70/8/74
f 53/12/75 66/18/75 82/18/75 69/12/75
f 62/53/76 61/29/76 77/29/76 78/53/76
f 52/4/77 55/1/77 71/1/77 68/4/77
f 73/39/78 67/16/78 80/64/78 81/66/78 82/18/78 69/12/78 74/9/78 75/32/78 76/30/78 70/8/78 77/29/78 78/53/78 79/52/78 68/4/78 71/1/78 72/41/78
o Cube.001
v 0.051691 -0.007688 -0.091859
v 0.033229 0.194997 -0.053902
v 0.055027 -0.001303 -0.141337
v 0.036565 0.201382 -0.103380
v 0.100881 0.000158 -0.087530
v 0.092564 0.189536 -0.081771
v 0.104217 0.006543 -0.137008
v 0.095900 0.195921 -0.131250
v -0.134743 0.003952 0.059749
v -0.130493 0.171775 0.071259
v -0.142532 -0.005878 -0.005741
v -0.138283 0.161945 0.005769
v -0.069910 -0.010622 0.054225
v -0.118984 0.188451 0.084092
v -0.077699 -0.020452 -0.011265
v -0.126774 0.178621 0.018602
v 0.030079 -0.000033 0.149280
v 0.065390 0.190662 0.152851
v 0.017869 0.012727 0.090321
v 0.010001 0.221364 0.080049
v 0.078988 -0.033151 0.131985
v 0.114299 0.157544 0.135555
v 0.066779 -0.020391 0.073025
v 0.058910 0.188246 0.062754
vn -0.9941 -0.0762 -0.0769
vn -0.2130 0.0939 -0.9725
vn 0.9965 0.0416 0.0726
vn 0.2130 -0.0939 0.9725
vn 0.1663 -0.9793 -0.1152
vn 0.1543 0.9785 0.1367
vn -0.9932 0.0172 0.1155
vn 0.0912 0.1226 -0.9883
vn 0.9541 0.2580 -0.1522
vn -0.0912 -0.1226 0.9883
vn -0.2024 -0.9646 0.1689
vn -0.8281 0.5604 0.0144
vn -0.8783 0.0683 0.4731
vn -0.3684 -0.0596 -0.9278
vn 0.8783 -0.0683 -0.4731
vn 0.2892 -0.0714 0.9546
vn -0.5737 -0.8170 -0.0580
vn 0.5446 0.8364 -0.0616
vt 0.375000 0.000000
vt 0.625000 0.000000
vt 0.625000 0.250000
vt 0.375000 0.250000
vt 0.625000 0.500000
vt 0.375000 0.500000
vt 0.625000 0.750000
vt 0.375000 0.750000
vt 0.625000 1.000000
vt 0.375000 1.000000
vt 0.125000 0.500000
vt 0.125000 0.750000
vt 0.875000 0.500000
vt 0.875000 0.750000
s 0
usemtl Material.001
f 83/75/79 84/76/79 86/77/79 85/78/79
f 85/78/80 86/77/80 90/79/80 89/80/80
f 89/80/81 90/79/81 88/81/81 87/82/81
f 87/82/82 88/81/82 84/83/82 83/84/82
f 85/85/83 89/80/83 87/82/83 83/86/83
f 90/79/84 86/87/84 84/88/84 88/81/84
f 91/75/85 92/76/85 94/77/85 93/78/85
f 93/78/86 94/77/86 98/79/86 97/80/86
f 97/80/87 98/79/87 96/81/87 95/82/87
f 95/82/88 96/81/88 92/83/88 91/84/88
f 93/85/89 97/80/89 95/82/89 91/86/89
f 98/79/90 94/87/90 92/88/90 96/81/90
f 99/75/91 100/76/91 102/77/91 101/78/91
f 101/78/92 102/77/92 106/79/92 105/80/92
f 105/80/93 106/79/93 104/81/93 103/82/93
f 103/82/94 104/81/94 100/83/94 99/84/94
f 101/85/95 105/80/95 103/82/95 99/86/95
f 106/79/96 102/87/96 100/88/96 104/81/96
