# Blender 4.2.2 LTS
# www.blender.org
mtllib sign.mtl
o Cube
v 0.132704 1.191728 -0.797650
v 0.381350 -1.171626 -0.797650
v 0.132704 1.191728 0.797650
v 0.381350 -1.171626 0.797650
v -0.066667 1.170753 -0.797650
v 0.181979 -1.192602 -0.797650
v -0.066667 1.170753 0.797650
v 0.181979 -1.192602 0.797650
v 0.181979 -1.192602 0.662899
v 0.132704 1.191728 0.662899
v -0.066667 1.170753 0.662899
v 0.381350 -1.171626 0.662899
v -0.066667 1.170753 -0.662632
v 0.381350 -1.171626 -0.662632
v 0.181979 -1.192602 -0.662632
v 0.132704 1.191728 -0.662632
v 0.148483 1.041748 -0.797650
v -0.050888 1.020773 0.797650
v 0.148483 1.041748 0.797650
v -0.050888 1.020773 -0.797650
v 0.148483 1.041748 0.662899
v -0.050888 1.020773 0.662899
v 0.148483 1.041748 -0.662632
v -0.050888 1.020773 -0.662632
v 0.365586 -1.021797 -0.797650
v 0.365586 -1.021797 0.797650
v 0.166215 -1.042772 -0.797650
v 0.365586 -1.021797 0.662899
v 0.166215 -1.042772 0.662899
v 0.365586 -1.021797 -0.662632
v 0.166215 -1.042772 -0.662632
v 0.166215 -1.042772 0.797650
v 0.078156 1.034349 -0.662632
v 0.078156 1.034349 0.662899
v 0.295260 -1.029196 0.662899
v 0.295260 -1.029196 -0.662632
v 0.217006 -1.525529 0.662899
v 0.217006 -1.525529 0.797650
v 0.416377 -1.504554 -0.797650
v 0.217006 -1.525529 -0.797650
v 0.416377 -1.504554 0.797650
v 0.416377 -1.504554 -0.662632
v 0.416377 -1.504554 0.662899
v 0.217006 -1.525529 -0.662632
v 0.122336 1.290271 0.797650
v -0.077035 1.269295 0.797650
v 0.122336 1.290271 0.662899
v -0.077035 1.269295 -0.662632
v -0.077035 1.269295 -0.797650
v 0.122336 1.290271 -0.797650
v -0.077035 1.269295 0.662899
v 0.122336 1.290271 -0.662632
v -0.108288 1.191728 0.797796
v -0.356934 -1.171626 0.797782
v -0.108203 1.191728 -0.797505
v -0.356849 -1.171626 -0.797519
v 0.091083 1.170753 0.797806
v -0.157563 -1.192602 0.797793
v 0.091168 1.170753 -0.797495
v -0.157478 -1.192602 -0.797508
v -0.157485 -1.192602 -0.662757
v -0.108210 1.191728 -0.662754
v 0.091161 1.170753 -0.662743
v -0.356856 -1.171626 -0.662767
v 0.091090 1.170753 0.662788
v -0.356927 -1.171626 0.662764
v -0.157556 -1.192602 0.662775
v -0.108281 1.191728 0.662777
v -0.124067 1.041748 0.797795
v 0.075389 1.020773 -0.797495
v -0.123982 1.041748 -0.797506
v 0.075304 1.020773 0.797805
v -0.123989 1.041748 -0.662755
v 0.075382 1.020773 -0.662744
v -0.124060 1.041748 0.662777
v 0.075311 1.020773 0.662787
v -0.341171 -1.021797 0.797783
v -0.341086 -1.021797 -0.797518
v -0.141800 -1.042772 0.797794
v -0.341093 -1.021797 -0.662766
v -0.141722 -1.042772 -0.662756
v -0.341164 -1.021797 0.662765
v -0.141793 -1.042772 0.662776
v -0.141715 -1.042772 -0.797507
v -0.053734 1.034349 0.662780
v -0.053663 1.034349 -0.662751
v -0.270767 -1.029196 -0.662763
v -0.270837 -1.029196 0.662769
v -0.192512 -1.525529 -0.662758
v -0.192505 -1.525529 -0.797510
v -0.391961 -1.504554 0.797781
v -0.192590 -1.525529 0.797791
v -0.391876 -1.504554 -0.797520
v -0.391954 -1.504554 0.662762
v -0.391883 -1.504554 -0.662769
v -0.192583 -1.525529 0.662773
v -0.097836 1.290271 -0.797505
v 0.101535 1.269295 -0.797494
v -0.097843 1.290271 -0.662753
v 0.101458 1.269295 0.662789
v 0.101451 1.269295 0.797807
v -0.097920 1.290271 0.797796
v 0.101528 1.269295 -0.662743
v -0.097913 1.290271 0.662778
vn 0.9945 0.1046 -0.0000
vn -0.0000 -0.0000 1.0000
vn -0.9945 -0.1046 -0.0000
vn -0.0000 -0.0000 -1.0000
vn 0.1046 -0.9945 -0.0000
vn -0.1046 0.9945 -0.0000
vn -0.9945 0.1046 -0.0001
vn 0.0001 -0.0000 -1.0000
vn 0.9945 -0.1046 0.0001
vn -0.0001 -0.0000 1.0000
vn -0.1046 -0.9945 -0.0000
vn 0.1046 0.9945 -0.0000
vt 0.625000 0.521159
vt 0.625000 0.500000
vt 0.609135 0.750000
vt 0.625000 0.750000
vt 0.625000 1.000000
vt 0.609135 1.000000
vt 0.609135 0.228841
vt 0.625000 0.228841
vt 0.625000 0.250000
vt 0.609135 0.250000
vt 0.375000 0.250000
vt 0.375000 0.500000
vt 0.609135 0.728883
vt 0.625000 0.728883
vt 0.609135 0.500000
vt 0.609135 0.521159
vt 0.125000 0.521159
vt 0.375000 0.521159
vt 0.375000 0.728883
vt 0.125000 0.728883
vt 0.609135 0.000000
vt 0.625000 0.000000
vt 0.625000 0.021117
vt 0.609135 0.021117
vt 0.875000 0.521159
vt 0.875000 0.728883
vt 0.390849 0.021117
vt 0.390849 0.228841
vt 0.390849 0.500000
vt 0.390849 0.521159
vt 0.390849 0.000000
vt 0.390849 0.728883
vt 0.390849 0.250000
vt 0.390849 0.750000
vt 0.390849 1.000000
vt 0.375000 0.750000
vt 0.375000 1.000000
vt 0.375000 0.228841
vt 0.375000 0.000000
vt 0.375000 0.021117
vt 0.994230 -0.085672
vt 1.010040 0.993886
vt -0.010771 0.993125
vt -0.044759 -0.119963
vt 0.125000 0.750000
vt 0.125000 0.500000
vt 0.875000 0.750000
vt 0.875000 0.500000
s 0
usemtl Material
f 16/1/1 1/2/1 50/2/1 52/1/1
f 19/3/2 3/4/2 7/5/2 18/6/2
f 24/7/3 13/8/3 5/9/3 20/10/3
f 6/11/4 2/12/4 39/12/4 40/11/4
f 21/13/1 10/14/1 3/4/1 19/3/1
f 20/10/4 5/9/4 1/2/4 17/15/4
f 23/16/1 16/1/1 10/14/1 21/13/1
f 15/17/5 14/18/5 12/19/5 9/20/5
f 18/21/3 7/22/3 11/23/3 22/24/3
f 16/1/6 13/25/6 11/26/6 10/14/6
f 11/23/3 7/22/3 46/22/3 51/23/3
f 14/18/2 15/17/2 44/17/2 42/18/2
f 17/15/1 1/2/1 16/1/1 23/16/1
f 22/24/3 11/23/3 13/8/3 24/7/3
f 29/27/3 22/24/3 24/7/3 31/28/3
f 25/29/1 17/15/1 23/16/1 30/30/1
f 32/31/3 18/21/3 22/24/3 29/27/3
f 28/32/6 30/30/6 36/30/6 35/32/6
f 27/33/4 20/10/4 17/15/4 25/29/4
f 28/32/1 21/13/1 19/3/1 26/34/1
f 31/28/3 24/7/3 20/10/3 27/33/3
f 26/34/2 19/3/2 18/6/2 32/35/2
f 4/36/2 26/34/2 32/35/2 8/37/2
f 15/38/3 31/28/3 27/33/3 6/11/3
f 12/19/1 28/32/1 26/34/1 4/36/1
f 6/11/4 27/33/4 25/29/4 2/12/4
f 14/18/1 30/30/1 28/32/1 12/19/1
f 8/39/3 32/31/3 29/27/3 9/40/3
f 2/12/1 25/29/1 30/30/1 14/18/1
f 9/40/3 29/27/3 31/28/3 15/38/3
f 23/16/5 21/13/5 34/13/5 33/16/5
f 30/30/2 23/16/2 33/16/2 36/30/2
f 21/13/4 28/32/4 35/32/4 34/13/4
f 37/20/5 43/19/5 41/36/5 38/45/5
f 40/46/5 39/12/5 42/18/5 44/17/5
f 4/36/2 8/37/2 38/37/2 41/36/2
f 9/20/4 12/19/4 43/19/4 37/20/4
f 12/19/1 4/36/1 41/36/1 43/19/1
f 15/38/3 6/11/3 40/11/3 44/38/3
f 8/39/3 9/40/3 37/40/3 38/39/3
f 2/12/1 14/18/1 42/18/1 39/12/1
f 47/14/6 51/26/6 46/47/6 45/4/6
f 50/2/6 49/48/6 48/25/6 52/1/6
f 1/2/4 5/9/4 49/9/4 50/2/4
f 10/14/4 11/26/4 51/26/4 47/14/4
f 7/5/2 3/4/2 45/4/2 46/5/2
f 13/25/2 16/1/2 52/1/2 48/25/2
f 5/9/3 13/8/3 48/8/3 49/9/3
f 3/4/1 10/14/1 47/14/1 45/4/1
f 68/1/7 53/2/7 102/2/7 104/1/7
f 71/3/8 55/4/8 59/5/8 70/6/8
f 76/7/9 65/8/9 57/9/9 72/10/9
f 58/11/10 54/12/10 91/12/10 92/11/10
f 73/13/7 62/14/7 55/4/7 71/3/7
f 72/10/10 57/9/10 53/2/10 69/15/10
f 75/16/7 68/1/7 62/14/7 73/13/7
f 67/17/11 66/18/11 64/19/11 61/20/11
f 70/21/9 59/22/9 63/23/9 74/24/9
f 68/1/12 65/25/12 63/26/12 62/14/12
f 63/23/9 59/22/9 98/22/9 103/23/9
f 66/18/8 67/17/8 96/17/8 94/18/8
f 69/15/7 53/2/7 68/1/7 75/16/7
f 74/24/9 63/23/9 65/8/9 76/7/9
f 81/27/9 74/24/9 76/7/9 83/28/9
f 77/29/7 69/15/7 75/16/7 82/30/7
f 84/31/9 70/21/9 74/24/9 81/27/9
f 80/32/12 82/30/12 88/30/12 87/32/12
f 79/33/10 72/10/10 69/15/10 77/29/10
f 80/32/7 73/13/7 71/3/7 78/34/7
f 83/28/9 76/7/9 72/10/9 79/33/9
f 78/34/8 71/3/8 70/6/8 84/35/8
f 56/36/8 78/34/8 84/35/8 60/37/8
f 67/38/9 83/28/9 79/33/9 58/11/9
f 64/19/7 80/32/7 78/34/7 56/36/7
f 58/11/10 79/33/10 77/29/10 54/12/10
f 66/18/7 82/30/7 80/32/7 64/19/7
f 60/39/9 84/31/9 81/27/9 61/40/9
f 54/12/7 77/29/7 82/30/7 66/18/7
f 61/40/9 81/27/9 83/28/9 67/38/9
f 88/30/7 85/16/7 86/13/7 87/32/7
f 75/16/11 73/13/11 86/13/11 85/16/11
f 82/30/8 75/16/8 85/16/8 88/30/8
f 73/13/10 80/32/10 87/32/10 86/13/10
f 89/20/11 95/19/11 93/36/11 90/45/11
f 92/46/11 91/12/11 94/18/11 96/17/11
f 56/36/8 60/37/8 90/37/8 93/36/8
f 61/20/10 64/19/10 95/19/10 89/20/10
f 64/19/7 56/36/7 93/36/7 95/19/7
f 67/38/9 58/11/9 92/11/9 96/38/9
f 60/39/9 61/40/9 89/40/9 90/39/9
f 54/12/7 66/18/7 94/18/7 91/12/7
f 99/14/12 103/26/12 98/47/12 97/4/12
f 102/2/12 101/48/12 100/25/12 104/1/12
f 53/2/10 57/9/10 101/9/10 102/2/10
f 62/14/10 63/26/10 103/26/10 99/14/10
f 59/5/8 55/4/8 97/4/8 98/5/8
f 65/25/8 68/1/8 104/1/8 100/25/8
f 57/9/9 65/8/9 100/8/9 101/9/9
f 55/4/7 62/14/7 99/14/7 97/4/7
usemtl Material.001
f 36/41/1 33/42/1 34/43/1 35/44/1
