# Blender 4.2.2 LTS
# www.blender.org
mtllib soup.mtl
o Cube
v -0.139433 0.189407 0.170690
v -0.138353 0.358147 0.159216
v -0.025771 0.180186 0.045782
v -0.024690 0.348926 0.034308
v -0.014191 0.196320 0.284147
v -0.013110 0.365059 0.272673
v 0.099472 0.187098 0.159239
v 0.100552 0.355838 0.147765
v -0.039440 0.225901 -0.170286
v -0.044541 0.355475 -0.153966
v 0.026968 0.242538 -0.281620
v 0.021867 0.372112 -0.265300
v 0.073014 0.221954 -0.103800
v 0.067913 0.351529 -0.087480
v 0.139422 0.238591 -0.215133
v 0.134321 0.368166 -0.198813
v -0.238776 0.234659 -0.058231
v -0.284123 0.329870 -0.051986
v -0.166157 0.273583 -0.124349
v -0.211504 0.368794 -0.118104
v -0.176886 0.258748 0.023926
v -0.222233 0.353958 0.030171
v -0.104266 0.297672 -0.042193
v -0.149613 0.392882 -0.035948
vn -0.7405 -0.0409 -0.6708
vn 0.6720 -0.0545 -0.7385
vn 0.7405 0.0409 0.6708
vn -0.6720 0.0545 0.7385
vn -0.0064 -0.9977 0.0678
vn 0.0064 0.9977 -0.0678
vn -0.8604 0.0302 -0.5087
vn 0.5081 0.1273 -0.8518
vn 0.8604 -0.0302 0.5087
vn -0.5081 -0.1273 0.8518
vn 0.0390 -0.9914 -0.1249
vn -0.0390 0.9914 0.1249
vn -0.5858 -0.2280 -0.7777
vn 0.6874 0.3685 -0.6259
vn 0.5858 0.2280 0.7777
vn -0.6874 -0.3685 0.6259
vn 0.4292 -0.9012 -0.0591
vn -0.4292 0.9012 0.0591
vt 0.375000 0.000000
vt 0.625000 0.000000
vt 0.625000 0.250000
vt 0.375000 0.250000
vt 0.625000 0.500000
vt 0.375000 0.500000
vt 0.625000 0.750000
vt 0.375000 0.750000
vt 0.625000 1.000000
vt 0.375000 1.000000
vt 0.125000 0.500000
vt 0.125000 0.750000
vt 0.875000 0.500000
vt 0.875000 0.750000
s 0
usemtl tofu
f 1/1/1 2/2/1 4/3/1 3/4/1
f 3/4/2 4/3/2 8/5/2 7/6/2
f 7/6/3 8/5/3 6/7/3 5/8/3
f 5/8/4 6/7/4 2/9/4 1/10/4
f 3/11/5 7/6/5 5/8/5 1/12/5
f 8/5/6 4/13/6 2/14/6 6/7/6
f 9/1/7 10/2/7 12/3/7 11/4/7
f 11/4/8 12/3/8 16/5/8 15/6/8
f 15/6/9 16/5/9 14/7/9 13/8/9
f 13/8/10 14/7/10 10/9/10 9/10/10
f 11/11/11 15/6/11 13/8/11 9/12/11
f 16/5/12 12/13/12 10/14/12 14/7/12
f 17/1/13 18/2/13 20/3/13 19/4/13
f 19/4/14 20/3/14 24/5/14 23/6/14
f 23/6/15 24/5/15 22/7/15 21/8/15
f 21/8/16 22/7/16 18/9/16 17/10/16
f 19/11/17 23/6/17 21/8/17 17/12/17
f 24/5/18 20/13/18 18/14/18 22/7/18
o Cylinder
v 0.000000 -0.028928 -0.151806
v 0.000000 0.013549 -0.151806
v 0.075903 -0.028928 -0.131468
v 0.075903 0.013549 -0.131468
v 0.131468 -0.028928 -0.075903
v 0.131468 0.013549 -0.075903
v 0.151806 -0.028928 0.000000
v 0.151806 0.013549 0.000000
v 0.131468 -0.028928 0.075903
v 0.131468 0.013549 0.075903
v 0.075903 -0.028928 0.131468
v 0.075903 0.013549 0.131468
v 0.000000 -0.028928 0.151806
v 0.000000 0.013549 0.151806
v -0.075903 -0.028928 0.131468
v -0.075903 0.013549 0.131468
v -0.131468 -0.028928 0.075903
v -0.131468 0.013549 0.075903
v -0.151806 -0.028928 0.000000
v -0.151806 0.013549 0.000000
v -0.131468 -0.028928 -0.075903
v -0.131468 0.013549 -0.075903
v -0.075903 -0.028928 -0.131468
v -0.075903 0.013549 -0.131468
v 0.172568 0.089610 -0.298896
v 0.000000 0.089610 -0.345136
v 0.298896 0.089610 -0.172568
v 0.345136 0.089610 0.000000
v 0.298896 0.089610 0.172568
v 0.172568 0.089610 0.298896
v 0.000000 0.089610 0.345136
v -0.172568 0.089610 0.298896
v -0.298896 0.089610 0.172568
v -0.345136 0.089610 0.000000
v -0.298896 0.089610 -0.172568
v -0.172568 0.089610 -0.298896
v 0.211062 0.294497 -0.365570
v 0.000000 0.294497 -0.422124
v 0.365570 0.294497 -0.211062
v 0.422124 0.294497 0.000000
v 0.365570 0.294497 0.211062
v 0.211062 0.294497 0.365570
v 0.000000 0.294497 0.422124
v -0.211062 0.294497 0.365570
v -0.365570 0.294497 0.211062
v -0.422124 0.294497 0.000000
v -0.365570 0.294497 -0.211062
v -0.211062 0.294497 -0.365570
v 0.211062 0.393648 -0.365570
v 0.000000 0.393648 -0.422124
v 0.365570 0.393648 -0.211062
v 0.422124 0.393648 0.000000
v 0.365570 0.393648 0.211062
v 0.211062 0.393648 0.365570
v 0.000000 0.393648 0.422124
v -0.211062 0.393648 0.365570
v -0.365570 0.393648 0.211062
v -0.422124 0.393648 0.000000
v -0.365570 0.393648 -0.211062
v -0.211062 0.393648 -0.365570
v 0.219478 0.393648 -0.380146
v 0.000000 0.393648 -0.438955
v 0.380146 0.393648 -0.219478
v 0.438955 0.393648 0.000000
v 0.380146 0.393648 0.219478
v 0.219478 0.393648 0.380146
v 0.000000 0.393648 0.438955
v -0.219478 0.393648 0.380146
v -0.380146 0.393648 0.219478
v -0.438955 0.393648 0.000000
v -0.380146 0.393648 -0.219478
v -0.219478 0.393648 -0.380146
v 0.219478 0.451564 -0.380146
v 0.000000 0.451564 -0.438955
v 0.380146 0.451564 -0.219478
v 0.438955 0.451564 0.000000
v 0.380146 0.451564 0.219478
v 0.219478 0.451564 0.380146
v 0.000000 0.451564 0.438955
v -0.219478 0.451564 0.380146
v -0.380146 0.451564 0.219478
v -0.438955 0.451564 0.000000
v -0.380146 0.451564 -0.219478
v -0.219478 0.451564 -0.380146
v 0.190751 0.451564 -0.330390
v 0.000000 0.451564 -0.381502
v 0.330390 0.451564 -0.190751
v 0.381502 0.451564 0.000000
v 0.330390 0.451564 0.190751
v 0.190751 0.451564 0.330390
v 0.000000 0.451564 0.381502
v -0.190751 0.451564 0.330390
v -0.330390 0.451564 0.190751
v -0.381502 0.451564 0.000000
v -0.330390 0.451564 -0.190751
v -0.190751 0.451564 -0.330390
v 0.190751 0.340211 -0.330390
v 0.000000 0.340211 -0.381502
v 0.330390 0.340211 -0.190751
v 0.381502 0.340211 0.000000
v 0.330390 0.340211 0.190751
v 0.190751 0.340211 0.330390
v 0.000000 0.340211 0.381502
v -0.190751 0.340211 0.330390
v -0.330390 0.340211 0.190751
v -0.381502 0.340211 0.000000
v -0.330390 0.340211 -0.190751
v -0.190751 0.340211 -0.330390
vn -0.0000 -0.0000 -1.0000
vn 0.5000 -0.0000 -0.8660
vn 0.8660 -0.0000 -0.5000
vn 1.0000 -0.0000 -0.0000
vn 0.8660 -0.0000 0.5000
vn 0.5000 -0.0000 0.8660
vn -0.0000 -0.0000 1.0000
vn -0.5000 -0.0000 0.8660
vn -0.8660 -0.0000 0.5000
vn -1.0000 -0.0000 -0.0000
vn -0.8660 -0.0000 -0.5000
vn -0.3661 -0.9306 -0.0000
vn -0.3171 -0.9306 0.1831
vn -0.6432 -0.6696 0.3714
vn -0.7427 -0.6696 -0.0000
vn -0.5000 -0.0000 -0.8660
vn -0.0000 -1.0000 -0.0000
vn 0.3714 -0.6696 -0.6432
vn -0.0000 -0.6696 -0.7427
vn -0.0000 -0.1738 -0.9848
vn 0.4924 -0.1738 -0.8528
vn -0.1831 -0.9306 0.3171
vn -0.3714 -0.6696 0.6432
vn -0.0000 -0.9306 0.3661
vn -0.0000 -0.6696 0.7427
vn 0.1831 -0.9306 0.3171
vn 0.3714 -0.6696 0.6432
vn 0.3171 -0.9306 0.1831
vn 0.6432 -0.6696 0.3714
vn 0.3661 -0.9306 -0.0000
vn 0.7427 -0.6696 -0.0000
vn -0.0000 -0.9306 -0.3661
vn -0.1831 -0.9306 -0.3171
vn -0.3714 -0.6696 -0.6432
vn 0.1831 -0.9306 -0.3171
vn 0.3171 -0.9306 -0.1831
vn 0.6432 -0.6696 -0.3714
vn -0.3171 -0.9306 -0.1831
vn -0.6432 -0.6696 -0.3714
vn -0.4924 -0.1738 -0.8528
vn -0.8528 -0.1738 -0.4924
vn -0.4924 -0.1738 0.8528
vn -0.8528 -0.1738 0.4924
vn 0.8528 -0.1738 0.4924
vn 0.4924 -0.1738 0.8528
vn 0.8528 -0.1738 -0.4924
vn -0.9848 -0.1738 -0.0000
vn -0.0000 -0.1738 0.9848
vn 0.9848 -0.1738 -0.0000
vn -0.0000 1.0000 -0.0000
vt 1.000000 0.500000
vt 1.000000 1.000000
vt 0.916667 1.000000
vt 0.916667 0.500000
vt 0.833333 1.000000
vt 0.833333 0.500000
vt 0.750000 1.000000
vt 0.750000 0.500000
vt 0.666667 1.000000
vt 0.666667 0.500000
vt 0.583333 1.000000
vt 0.583333 0.500000
vt 0.500000 1.000000
vt 0.500000 0.500000
vt 0.416667 1.000000
vt 0.416667 0.500000
vt 0.333333 1.000000
vt 0.333333 0.500000
vt 0.250000 1.000000
vt 0.250000 0.500000
vt 0.166667 1.000000
vt 0.166667 0.500000
vt 0.083333 1.000000
vt 0.083333 0.500000
vt 0.000000 1.000000
vt 0.000000 0.500000
vt 0.750000 0.490000
vt 0.870000 0.457846
vt 0.957846 0.370000
vt 0.990000 0.250000
vt 0.957846 0.130000
vt 0.870000 0.042154
vt 0.750000 0.010000
vt 0.630000 0.042154
vt 0.542154 0.130000
vt 0.510000 0.250000
vt 0.542154 0.370000
vt 0.630000 0.457846
vt 0.370000 0.457846
vt 0.250000 0.490000
vt 0.130000 0.457846
vt 0.042154 0.370000
vt 0.010000 0.250000
vt 0.042154 0.130000
vt 0.130000 0.042154
vt 0.250000 0.010000
vt 0.370000 0.042154
vt 0.457846 0.130000
vt 0.490000 0.250000
vt 0.457846 0.370000
s 1
usemtl bowl
f 25/15/19 26/16/19 28/17/20 27/18/20
f 27/18/20 28/17/20 30/19/21 29/20/21
f 29/20/21 30/19/21 32/21/22 31/22/22
f 31/22/22 32/21/22 34/23/23 33/24/23
f 33/24/23 34/23/23 36/25/24 35/26/24
f 35/26/24 36/25/24 38/27/25 37/28/25
f 37/28/25 38/27/25 40/29/26 39/30/26
f 39/30/26 40/29/26 42/31/27 41/32/27
f 41/32/27 42/31/27 44/33/28 43/34/28
f 43/34/28 44/33/28 46/35/29 45/36/29
f 44/33/30 42/31/31 57/31/32 58/33/33
f 45/36/29 46/35/29 48/37/34 47/38/34
f 47/38/34 48/37/34 26/39/19 25/40/19
f 25/41/35 27/42/35 29/43/35 31/44/35 33/45/35 35/46/35 37/47/35 39/48/35 41/49/35 43/50/35 45/51/35 47/52/35
f 49/17/36 50/16/37 62/16/38 61/17/39
f 42/31/31 40/29/40 56/29/41 57/31/32
f 40/29/40 38/27/42 55/27/43 56/29/41
f 38/27/42 36/25/44 54/25/45 55/27/43
f 36/25/44 34/23/46 53/23/47 54/25/45
f 34/23/46 32/21/48 52/21/49 53/23/47
f 26/39/50 48/37/51 60/37/52 50/39/37
f 28/17/53 26/16/50 50/16/37 49/17/36
f 32/21/48 30/19/54 51/19/55 52/21/49
f 48/37/51 46/35/56 59/35/57 60/37/52
f 30/19/54 28/17/53 49/17/36 51/19/55
f 46/35/56 44/33/30 58/33/33 59/35/57
f 57/31/32 56/29/41 68/29/60 69/31/61
f 54/25/45 53/23/47 65/23/62 66/25/63
f 50/39/37 60/37/52 72/37/58 62/39/38
f 51/19/55 49/17/36 61/17/39 63/19/64
f 58/33/33 57/31/32 69/31/61 70/33/65
f 55/27/43 54/25/45 66/25/63 67/27/66
f 52/21/49 51/19/55 63/19/64 64/21/67
f 59/35/57 58/33/33 70/33/65 71/35/59
f 56/29/41 55/27/43 67/27/66 68/29/60
f 53/23/47 52/21/49 64/21/67 65/23/62
f 60/37/52 59/35/57 71/35/59 72/37/58
f 73/17/35 74/16/35 86/16/35 85/17/35
f 96/37/34 95/35/29 107/35/29 108/37/34
f 81/31/35 80/29/35 92/29/35 93/31/35
f 78/25/35 77/23/35 89/23/35 90/25/35
f 74/39/35 84/37/35 96/37/35 86/39/35
f 75/19/35 73/17/35 85/17/35 87/19/35
f 82/33/35 81/31/35 93/31/35 94/33/35
f 79/27/35 78/25/35 90/25/35 91/27/35
f 76/21/35 75/19/35 87/19/35 88/21/35
f 83/35/35 82/33/35 94/33/35 95/35/35
f 80/29/35 79/27/35 91/27/35 92/29/35
f 77/23/35 76/21/35 88/21/35 89/23/35
f 84/37/35 83/35/35 95/35/35 96/37/35
f 101/23/68 100/21/68 112/21/68 113/23/68
f 85/17/20 86/16/19 98/16/19 97/17/20
f 93/31/27 92/29/26 104/29/26 105/31/27
f 90/25/24 89/23/23 101/23/23 102/25/24
f 86/39/19 96/37/34 108/37/34 98/39/19
f 87/19/21 85/17/20 97/17/20 99/19/21
f 94/33/28 93/31/27 105/31/27 106/33/28
f 91/27/25 90/25/24 102/25/24 103/27/25
f 88/21/22 87/19/21 99/19/21 100/21/22
f 95/35/29 94/33/28 106/33/28 107/35/29
f 92/29/26 91/27/25 103/27/25 104/29/26
f 89/23/23 88/21/22 100/21/22 101/23/23
f 114/25/34 113/23/29 125/23/29 126/25/34
f 108/37/68 107/35/68 119/35/68 120/37/68
f 97/17/68 98/16/68 110/16/68 109/17/68
f 105/31/68 104/29/68 116/29/68 117/31/68
f 102/25/68 101/23/68 113/23/68 114/25/68
f 98/39/68 108/37/68 120/37/68 110/39/68
f 99/19/68 97/17/68 109/17/68 111/19/68
f 106/33/68 105/31/68 117/31/68 118/33/68
f 103/27/68 102/25/68 114/25/68 115/27/68
f 100/21/68 99/19/68 111/19/68 112/21/68
f 107/35/68 106/33/68 118/33/68 119/35/68
f 104/29/68 103/27/68 115/27/68 116/29/68
f 110/39/25 120/37/24 132/37/24 122/39/25
f 111/19/27 109/17/26 121/17/26 123/19/27
f 118/33/22 117/31/21 129/31/21 130/33/22
f 115/27/19 114/25/34 126/25/34 127/27/19
f 112/21/28 111/19/27 123/19/27 124/21/28
f 119/35/23 118/33/22 130/33/22 131/35/23
f 116/29/20 115/27/19 127/27/19 128/29/20
f 113/23/29 112/21/28 124/21/28 125/23/29
f 120/37/24 119/35/23 131/35/23 132/37/24
f 109/17/26 110/16/25 122/16/25 121/17/26
f 117/31/21 116/29/20 128/29/20 129/31/21
usemtl bowlstrpie
f 72/37/58 71/35/59 83/35/29 84/37/34
f 61/17/39 62/16/38 74/16/19 73/17/20
f 69/31/61 68/29/60 80/29/26 81/31/27
f 66/25/63 65/23/62 77/23/23 78/25/24
f 62/39/38 72/37/58 84/37/34 74/39/19
f 63/19/64 61/17/39 73/17/20 75/19/21
f 70/33/65 69/31/61 81/31/27 82/33/28
f 67/27/66 66/25/63 78/25/24 79/27/25
f 64/21/67 63/19/64 75/19/21 76/21/22
f 71/35/59 70/33/65 82/33/28 83/35/29
f 68/29/60 67/27/66 79/27/25 80/29/26
f 65/23/62 64/21/67 76/21/22 77/23/23
usemtl soup
f 121/53/68 122/54/68 132/55/68 131/56/68 130/57/68 129/58/68 128/59/68 127/60/68 126/61/68 125/62/68 124/63/68 123/64/68
